<?xml version="1.0" encoding="utf-8"?>
<!-- Generator: Adobe Illustrator 23.0.1, SVG Export Plug-In . SVG Version: 6.00 Build 0)  -->
<svg version="1.1" id="Layer_1" xmlns="http://www.w3.org/2000/svg" xmlns:xlink="http://www.w3.org/1999/xlink" x="0px" y="0px"
	 width="40px" height="40px" viewBox="0 0 40 40" style="enable-background:new 0 0 40 40;" xml:space="preserve">
<style type="text/css">
	.st0{fill:#EEC31B;}
	.st1{fill:#F2D45A;}
	.st2{fill:#E37D26;}
	.st3{fill:#383A3D;}
	.st4{fill:#3F4347;}
	.st5{fill:#FFFFFF;}
	.st6{fill:#93A3A3;}
	.st7{fill:#E44C3B;}
	.st8{fill:#4381C2;}
	.st9{fill:#FCD6AC;}
	.st10{fill:#2C2F38;}
	.st11{fill:#BF3B2B;}
	.st12{fill:#805334;}
	.st13{fill:#603E26;}
	.st14{fill:#E1574C;}
	.st15{fill:#D04F45;}
</style>
<g>
	<path class="st0" d="M39.8,13.7c0,0.1,0,0.2-0.1,0.3c-0.8,0.9-1.4,2-1.9,3.1c-0.2,0.2-0.5,0.3-0.7,0.4c-0.7,0.2-1.4,0.1-2.1-0.2
		c0,0,0,0,0,0c-0.7-0.3-1.2-0.7-1.6-1.3c-0.1-0.2-0.2-0.5-0.3-0.7c0.5-1.1,0.8-2.4,0.9-3.6c0-0.1,0.1-0.2,0.2-0.3l3.5-2.2l0.9-0.6
		l0.2,1L39.8,13.7z"/>
	<path class="st1" d="M38.7,8.6l-1.9,4.6h0l-1.7,4.1c0,0,0,0,0,0c-0.7-0.3-1.2-0.7-1.6-1.3c-0.1-0.2-0.2-0.5-0.3-0.7
		c0.5-1.1,0.8-2.4,0.9-3.6c0-0.1,0.1-0.2,0.2-0.3l3.5-2.2L38.7,8.6z"/>
	<path class="st2" d="M38.9,9.7l-1.4,3.3c-0.1,0.2-0.3,0.4-0.6,0.4c-0.1,0-0.2,0-0.2-0.1h0c-0.2-0.1-0.4-0.3-0.4-0.6
		c0-0.1,0-0.2,0.1-0.2l1.4-3.2l0.9-0.6L38.9,9.7z"/>
	<g>
		<rect x="7.2" y="17.3" transform="matrix(0.8619 -0.5071 0.5071 0.8619 -9.7156 9.0234)" class="st3" width="9" height="10.1"/>
		<path class="st4" d="M13,15.7l-7.7,4.6l4.8,8.2C13.7,25.2,14.6,20.3,13,15.7z"/>
		<path class="st5" d="M11.8,17.7l-0.5-0.9l-4.2,2.5l0.5,0.9c0.2,0.3,0.5,0.4,0.8,0.2l3.2-1.9C11.8,18.3,11.9,17.9,11.8,17.7z"/>
		<path class="st5" d="M11.7,27l0.5,0.9l4.2-2.5l-0.5-0.9c-0.2-0.3-0.5-0.4-0.8-0.2l-3.2,1.9C11.6,26.4,11.5,26.8,11.7,27z"/>
		<path class="st5" d="M14.4,22.2L13.2,20c-0.2-0.3-0.5-0.4-0.8-0.2l-3.2,1.9c-0.3,0.2-0.4,0.5-0.2,0.8l1.3,2.2
			c0.2,0.3,0.5,0.4,0.8,0.2l3.2-1.9C14.5,22.8,14.6,22.5,14.4,22.2z"/>
		<g>
			<rect x="6.4" y="20.4" transform="matrix(0.8619 -0.5071 0.5071 0.8619 -9.5866 6.2891)" class="st5" width="0.7" height="0.7"/>
			<rect x="7.4" y="22" transform="matrix(0.8619 -0.5071 0.5071 0.8619 -10.3015 7.0217)" class="st5" width="0.7" height="0.7"/>
			
				<rect x="8.4" y="23.7" transform="matrix(0.8619 -0.5071 0.5071 0.8619 -11.0162 7.7542)" class="st5" width="0.7" height="0.7"/>
			
				<rect x="9.3" y="25.4" transform="matrix(0.8619 -0.5071 0.5071 0.8619 -11.7311 8.4869)" class="st5" width="0.7" height="0.7"/>
			
				<rect x="10.3" y="27.1" transform="matrix(0.8619 -0.5071 0.5071 0.8619 -12.4462 9.2197)" class="st5" width="0.7" height="0.7"/>
			
				<rect x="12.3" y="16.9" transform="matrix(0.8619 -0.5071 0.5071 0.8619 -6.9852 8.8274)" class="st5" width="0.7" height="0.7"/>
			<rect x="13.3" y="18.5" transform="matrix(0.8619 -0.5071 0.5071 0.8619 -7.7001 9.56)" class="st5" width="0.7" height="0.7"/>
			
				<rect x="14.3" y="20.2" transform="matrix(0.8619 -0.5071 0.5071 0.8619 -8.4148 10.2925)" class="st5" width="0.7" height="0.7"/>
			
				<rect x="15.3" y="21.9" transform="matrix(0.8619 -0.5071 0.5071 0.8619 -9.1297 11.0252)" class="st5" width="0.7" height="0.7"/>
			
				<rect x="16.3" y="23.6" transform="matrix(0.8619 -0.5071 0.5071 0.8619 -9.8448 11.758)" class="st5" width="0.7" height="0.7"/>
		</g>
		<rect x="2.1" y="8.6" transform="matrix(0.8619 -0.5071 0.5071 0.8619 -6.0032 5.2188)" class="st4" width="9" height="10.1"/>
		<path class="st4" d="M7.3,7.3l-7.2,4.2l4.8,8.2C8.5,16.5,8.9,11.9,7.3,7.3z"/>
		<path class="st5" d="M6.6,8.9L6.1,8l-4.2,2.5l0.5,0.9c0.2,0.3,0.5,0.4,0.8,0.2l3.2-1.9C6.7,9.6,6.8,9.2,6.6,8.9z"/>
		<path class="st5" d="M6.5,18.3l0.7,1.2l4.1-2.6l-0.6-1.1c-0.2-0.3-0.5-0.4-0.8-0.2l-3.2,1.9C6.5,17.7,6.4,18,6.5,18.3z"/>
		<path class="st5" d="M9.3,13.5L8,11.3c-0.2-0.3-0.5-0.4-0.8-0.2L4.1,13c-0.3,0.2-0.4,0.5-0.2,0.8L5.1,16c0.2,0.3,0.5,0.4,0.8,0.2
			l3.2-1.9C9.4,14.1,9.5,13.8,9.3,13.5z"/>
		<g>
			<rect x="1.2" y="11.7" transform="matrix(0.8619 -0.5071 0.5071 0.8619 -5.8742 2.4844)" class="st5" width="0.7" height="0.7"/>
			<rect x="2.2" y="13.3" transform="matrix(0.8619 -0.5071 0.5071 0.8619 -6.5891 3.2171)" class="st5" width="0.7" height="0.7"/>
			<rect x="3.2" y="15" transform="matrix(0.8619 -0.5071 0.5071 0.8619 -7.3038 3.9496)" class="st5" width="0.7" height="0.7"/>
			<rect x="4.2" y="16.7" transform="matrix(0.8619 -0.5071 0.5071 0.8619 -8.0187 4.6822)" class="st5" width="0.7" height="0.7"/>
			<rect x="5.2" y="18.4" transform="matrix(0.8619 -0.5071 0.5071 0.8619 -8.7338 5.4151)" class="st5" width="0.7" height="0.7"/>
			<rect x="7.2" y="8.1" transform="matrix(0.8619 -0.5071 0.5071 0.8619 -3.2728 5.0227)" class="st5" width="0.7" height="0.7"/>
			<rect x="8.2" y="9.8" transform="matrix(0.8619 -0.5071 0.5071 0.8619 -3.9877 5.7554)" class="st5" width="0.7" height="0.7"/>
			<rect x="9.2" y="11.5" transform="matrix(0.8619 -0.5071 0.5071 0.8619 -4.7024 6.4879)" class="st5" width="0.7" height="0.7"/>
			
				<rect x="10.2" y="13.2" transform="matrix(0.8619 -0.5071 0.5071 0.8619 -5.4173 7.2205)" class="st5" width="0.7" height="0.7"/>
			
				<rect x="11.2" y="14.9" transform="matrix(0.8619 -0.5071 0.5071 0.8619 -6.1324 7.9534)" class="st5" width="0.7" height="0.7"/>
		</g>
	</g>
	<path class="st6" d="M28.2,15.2c-1.6,0-3.1-0.3-4.6-0.7c0.2-1,0.4-2,0.6-3c1.4,0.2,2.8,0.4,4.3,0.6C28.4,13.1,28.3,14.2,28.2,15.2z
		"/>
	<path id="Shape_1_" class="st7" d="M37.9,17.2c-0.1,0.2-0.2,0.4-0.2,0.6l-2.9,7.1l-3.4-4.9l1.7-4.1c0.1-0.2,0.2-0.4,0.2-0.5
		L37.9,17.2z"/>
	<path class="st8" d="M28.2,15.2c-0.2,1.2-0.4,2.5-0.7,3.7l-4.4,0.4c0-1.6,0.2-3.2,0.5-4.7l0,0L28.2,15.2z"/>
	<g>
		<path class="st9" d="M18.6,6.7c0,0,0.6,4.9-1.3,5.3c-1.8,0.4-3.6-4.2-3.6-4.2l0.1-3.2c0.5,0.2,0.6-2,1.2-2.1
			c0.6-0.1,1.7,1.7,2.1,1.3L18.6,6.7z"/>
		<path class="st10" d="M17,3.9c-0.4,0.5-0.9,0.8-1.5,1c-0.6,0.1-1.2,0-1.8-0.2l0.1-3.3c0-0.4,0.3-0.7,0.6-0.8c0.1,0,0.1,0,0.2,0
			c0.3,0,0.6,0.2,0.7,0.4L17,3.9z"/>
		<path class="st7" d="M21.9,20.8L20.6,25l-0.4-0.3L17,21.9l-3.3-14c0,0,1,1.7,2.9,1.3c1.8-0.4,2-2.4,2-2.4L21.9,20.8z"/>
		<path class="st11" d="M20.2,24.7L17,21.9l-3.3-14c0,0,1,1.7,2.9,1.3L20.2,24.7z"/>
	</g>
	<polygon class="st5" points="17,26.4 8.9,28.7 5.2,24.2 20.2,20.4 24.7,21.4 26.5,23.9 25.6,27.2 	"/>
	<path class="st12" d="M24.2,11.5c0,0-2.3-2.5,0.2-4.8c2.1-1.9,2.9-3.3,3-4.7c0-0.1,0.1-0.2,0.2-0.3c0.1,0,0.3,0,0.3,0.1
		c1.4,1.6,4.6,6.1,0.5,10.3"/>
	<path class="st13" d="M27.3,10.5c-0.2,0-0.4-0.2-0.5-0.4c-0.1-0.2,0-0.5,0.1-0.7c0.6-0.7,0.9-1.6,0.8-2.6c0-0.2,0-0.5,0.2-0.6
		s0.4-0.2,0.6-0.1c0.2,0.1,0.4,0.3,0.4,0.5c0.1,1.3-0.3,2.6-1.1,3.6C27.7,10.4,27.5,10.5,27.3,10.5z"/>
	<path class="st14" d="M17.8,32.8v-2.4l-6.6,1.9c0,0,0.5-2.8,3.9-3.8c1-0.3,1.9-0.3,2.7-0.1v-9.7h3.3c-0.4-1.1-0.7-2-1-2.6
		c-0.5-1-1-0.3-2.1,0.6c-0.8,0.6-2.8,2.1-5.8,2.9c-3,0.8-5.4,0.6-6.4,0.4c-1.4-0.3-2.2-0.6-2.1,0.5c0.1,1,0.3,2.4,0.8,4.4
		c1.1,4.3,4.9,12.5,11.9,10.6c1.9-0.5,3.2-1.5,4.1-2.7H17.8L17.8,32.8z M7.2,25l5-1.3c0,0-0.1,1.9-2,2.4C8.4,26.6,7.2,25,7.2,25z"/>
	<path class="st1" d="M36.8,18.8c-1.3,0.2-4.5,0.5-8.5-0.5s-6.6-2.9-7.6-3.8c-1.5-1.2-2.1-2.1-2.7-0.8c-0.6,1.1-1.3,3-2,5.6
		c-1.5,5.6-2.6,17.5,6.7,20C32,41.8,37,31,38.5,25.4c0.7-2.6,1-4.6,1.1-5.8C39.7,18.1,38.7,18.5,36.8,18.8z M18,23.5
		c0,0,1.5-2.3,4-1.6c2.5,0.7,2.7,3.5,2.7,3.5L18,23.5z M24.1,33.7c-4.4-1.3-5.1-4.8-5.1-4.8l11.8,3.3C30.9,32.3,28.5,35,24.1,33.7z
		 M28.4,26.6c0,0,1.4-2.3,3.8-1.6c2.4,0.7,2.6,3.5,2.6,3.5L28.4,26.6z"/>
	<path class="st0" d="M24.5,33.8l-0.3-0.1c-4.4-1.3-5.1-4.8-5.1-4.8l6.2,1.7l3.2-12.4c-0.1,0-0.1,0-0.2,0c-4-1.1-6.6-2.9-7.6-3.8
		c-1.5-1.2-2.1-2.1-2.7-0.8c-0.6,1.1-1.3,3-2,5.6c-1.5,5.4-2.6,16.6,5.7,19.7l1.4,0.4L24.5,33.8L24.5,33.8z M18,23.5
		c0,0,1.5-2.3,4-1.6c2.5,0.7,2.7,3.5,2.7,3.5L18,23.5z"/>
	<path class="st15" d="M15.5,31.1l-4.2,1.2c0,0,0.4-2.6,3.6-3.7l-2.4-9.1c-0.1,0-0.1,0-0.2,0.1c-3,0.8-5.4,0.6-6.4,0.4
		c-1.4-0.3-2.2-0.6-2.1,0.5C3.7,21.5,4,23,4.5,25c1.2,4.2,4.9,12.4,12,10.5l0.2-0.1C16.6,35.4,15.5,31.1,15.5,31.1z M7.2,25l5-1.3
		c0,0-0.1,1.9-2,2.4C8.4,26.6,7.2,25,7.2,25z"/>
</g>
</svg>
