<?xml version="1.0" encoding="utf-8"?>
<!-- Generator: Adobe Illustrator 23.0.1, SVG Export Plug-In . SVG Version: 6.00 Build 0)  -->
<svg version="1.1" id="Layer_1" xmlns="http://www.w3.org/2000/svg" xmlns:xlink="http://www.w3.org/1999/xlink" x="0px" y="0px"
	 width="40px" height="40px" viewBox="0 0 40 40" style="enable-background:new 0 0 40 40;" xml:space="preserve">
<style type="text/css">
	.st0{fill:#4CC6E5;}
	.st1{fill:#FDD106;}
	.st2{fill:#F7941D;}
	.st3{fill:#3351A2;}
</style>
<path class="st0" d="M29.5,37.5c-0.2,0-0.3-0.1-0.4-0.2L26.5,34h-6.5c-0.3,0-0.6-0.2-0.6-0.6c0-0.4,0.2-0.6,0.6-0.6h6.7
	c0.2,0,0.3,0.1,0.4,0.2l2.7,3.6c0.2,0.2,0.1,0.6-0.1,0.8C29.7,37.5,29.6,37.5,29.5,37.5L29.5,37.5z"/>
<path class="st0" d="M26.7,29.6H20c-0.3,0-0.6-0.2-0.6-0.6c0-0.4,0.2-0.6,0.6-0.6h6.8c0.3,0,0.6,0.2,0.6,0.6
	C27.3,29.4,27,29.6,26.7,29.6z"/>
<path class="st0" d="M30.1,25H20.1c-0.3,0-0.6-0.2-0.6-0.6c0-0.3,0.2-0.6,0.6-0.6h10.1c0.3,0,0.6,0.2,0.6,0.6
	C30.6,24.8,30.4,25,30.1,25z"/>
<path class="st0" d="M24.3,20.6h-4.2c-0.3,0-0.6-0.2-0.6-0.6s0.2-0.6,0.6-0.6h4.2c0.3,0,0.6,0.2,0.6,0.6S24.6,20.6,24.3,20.6z"/>
<path class="st0" d="M36.5,23.7c-0.1,0-0.3-0.1-0.4-0.2L29,16.2h-8.9c-0.3,0-0.6-0.2-0.6-0.6c0-0.3,0.2-0.6,0.6-0.6l0,0h9.1
	c0.1,0,0.3,0.1,0.4,0.2l7.3,7.5c0.2,0.2,0.2,0.6,0,0.8C36.8,23.7,36.6,23.7,36.5,23.7L36.5,23.7z"/>
<path class="st0" d="M36,11.7h-16c-0.3,0-0.6-0.2-0.6-0.6c0-0.3,0.2-0.6,0.6-0.6h16c0.3,0,0.6,0.2,0.6,0.6
	C36.6,11.5,36.3,11.7,36,11.7L36,11.7z"/>
<path class="st0" d="M29.2,8.1h-9.1c-0.3,0-0.6-0.2-0.6-0.6c0-0.3,0.2-0.6,0.6-0.6H29l2.4-2.5c0.2-0.2,0.6-0.2,0.8,0s0.2,0.6,0,0.8
	l-2.6,2.7C29.5,8.1,29.3,8.1,29.2,8.1L29.2,8.1z"/>
<path class="st1" d="M14.4,0.4c-3.1,0-5.6,2.6-5.6,5.7l0,0c-2.6,0.2-4.7,2.4-4.5,5.1c0,0.7,0.2,1.3,0.5,1.9C0.9,15.7-0.3,21,2.1,25
	c0.6,1,1.5,1.9,2.4,2.6c-0.8,2.6,0.6,5.3,3,6.2C8,34,8.4,34.1,8.9,34.1l0,0c0,3.2,2.4,5.7,5.6,5.8c3.1,0,5.6-2.5,5.7-5.7v-0.1V6.1
	C20.1,2.9,17.5,0.4,14.4,0.4L14.4,0.4z"/>
<path class="st2" d="M3.7,21c-0.3,0-0.5-0.2-0.5-0.5c0-3.4,2.6-6.1,6-6.1c0.3,0,0.6,0.2,0.6,0.6c0,0.3-0.2,0.6-0.6,0.6
	c-2.7,0-4.9,2.3-4.9,5C4.3,20.8,4,21,3.7,21L3.7,21z"/>
<path class="st2" d="M17,6.8c-0.3,0-0.6-0.2-0.6-0.6c0-1.2-0.9-2.1-2.1-2.1S12.3,5,12.3,6.2c0,0.3-0.2,0.6-0.6,0.6
	c-0.3,0-0.6-0.2-0.6-0.6c0-1.8,1.4-3.2,3.1-3.2s3.1,1.4,3.1,3.2C17.5,6.5,17.3,6.8,17,6.8L17,6.8z"/>
<path class="st2" d="M11.5,19.5c-0.3,0-0.6-0.2-0.6-0.6s0.2-0.6,0.6-0.6c1.5,0,2.6-1.2,2.6-2.7v-1.8c0-1.5-1.2-2.7-2.6-2.7h-0.2
	c-0.3,0-0.6-0.2-0.6-0.6c0-0.4,0.2-0.6,0.6-0.6h0.2c2.1,0,3.7,1.7,3.7,3.8v1.8C15.3,17.8,13.6,19.5,11.5,19.5z"/>
<path class="st2" d="M14.8,25h-3.1c-2.4,0-4.2-1.9-4.2-4.3c0-0.3,0.2-0.6,0.6-0.6c0.3,0,0.6,0.2,0.6,0.6c0,1.8,1.4,3.2,3.1,3.2h3.1
	c0.3,0,0.6,0.2,0.6,0.6C15.3,24.8,15.1,25,14.8,25z"/>
<path class="st2" d="M16.7,32.8c-2.7,0-4.9-2.3-4.9-5c0-0.3,0.2-0.6,0.6-0.6c0.3,0,0.6,0.2,0.6,0.6c0,2.2,1.8,3.9,3.8,3.9
	c0.3,0,0.6,0.2,0.6,0.6C17.4,32.7,17,32.8,16.7,32.8z"/>
<path class="st2" d="M9,31.6L9,31.6c-1.6-0.2-2.6-1.7-2.4-3.2c0-0.3,0.3-0.5,0.6-0.5c0.3,0,0.5,0.3,0.5,0.6l0,0
	c-0.1,0.9,0.5,1.8,1.4,1.9c0.3,0,0.5,0.3,0.5,0.6C9.5,31.4,9.3,31.6,9,31.6z"/>
<path class="st2" d="M14.6,37.5c-1.9,0-3.4-1.6-3.4-3.5c0-0.3,0.2-0.6,0.6-0.6c0.3,0,0.6,0.2,0.6,0.6c0,1.3,1.1,2.4,2.4,2.4
	c0.3,0,0.6,0.2,0.6,0.6C15.1,37.2,14.9,37.5,14.6,37.5z"/>
<g>
	<ellipse class="st3" cx="28.3" cy="29" rx="1.6" ry="1.6"/>
	<ellipse class="st3" cx="30.5" cy="38.2" rx="1.6" ry="1.6"/>
	<ellipse class="st3" cx="31.7" cy="24.5" rx="1.6" ry="1.6"/>
	<ellipse class="st3" cx="37.6" cy="24.3" rx="1.6" ry="1.6"/>
	<ellipse class="st3" cx="36" cy="16.4" rx="1.6" ry="1.6"/>
	<ellipse class="st3" cx="36" cy="31.4" rx="1.6" ry="1.6"/>
	<ellipse class="st3" cx="37.6" cy="11.2" rx="1.6" ry="1.6"/>
	<ellipse class="st3" cx="32.9" cy="3.6" rx="1.6" ry="1.6"/>
	<ellipse class="st3" cx="25.8" cy="20" rx="1.6" ry="1.6"/>
</g>
</svg>
