<?xml version="1.0" encoding="utf-8"?>
<!-- Generator: Adobe Illustrator 23.0.1, SVG Export Plug-In . SVG Version: 6.00 Build 0)  -->
<svg version="1.1" id="Layer_1" xmlns="http://www.w3.org/2000/svg" xmlns:xlink="http://www.w3.org/1999/xlink" x="0px" y="0px"
	 width="40px" height="40px" viewBox="0 0 40 40" style="enable-background:new 0 0 40 40;" xml:space="preserve">
<style type="text/css">
	.st0{fill:#4281C6;}
	.st1{fill-rule:evenodd;clip-rule:evenodd;fill:#F0C419;}
	.st2{fill:#ECF0F1;}
	.st3{fill:#D1D6DE;}
	.st4{fill:#F0C419;}
	.st5{fill:#F3D55B;}
	.st6{fill:#F29C1F;}
	.st7{fill:#EBEEF2;}
</style>
<g>
	<path id="Shape" class="st0" d="M12.2,34.7c2.3,1,3.3,5.2,3.3,5.2l16.8,0c-0.3-0.7-0.7-1.3-1.1-1.9c-0.3-0.6-0.6-1.3-0.8-2
		c-0.4-1.3-0.7-2.7-0.8-4.1c-0.2-2.1,0.1-4.3,0.9-6.2c0.8-1.7,2.1-3.1,3.1-4.7c1-1.5,1.5-3.3,1.5-5.2c0-1.9-0.2-3.7-0.7-5.5
		c-0.6-2.2-2-4.1-3.8-5.4C27.4,2.3,24,0.8,19.7,1c-2.1,0.1-4.3,0.5-6.4,0.9C11.1,2.4,8.7,3.3,7,5C5.9,6.2,5,7.6,4.5,9.1
		C4.2,9.9,4,10.7,3.8,11.5c-0.3,0.9-0.6,1.7-1,2.5c-0.1,0.2-0.2,0.5-0.1,0.8c0.1,0.9,1.5,1.3,1.5,2.3c0,0.2-0.1,0.4-0.2,0.6
		c-0.8,1.7-1.8,3.4-3,4.9c-0.3,0.3-0.8,1-0.8,1.5c0,0.3,0.5,0.6,0.7,0.8c0.5,0.4,1.6,0.7,1.8,1.4c0.1,0.4,0,0.7-0.1,1.1
		c-0.4,0.8-0.8,1.2-0.5,1.4c0.3,0.2,1.1,0.8,1.1,0.8s-0.7,0.9-0.3,1.2C3.4,31.2,4,31.4,4.2,32c0.1,0.5,0,1.1-0.2,1.6
		c-0.1,0.5,0,1,0.2,1.5c0.2,0.9,1.2,1.5,2.1,1.3C8.4,36,10.3,35.4,12.2,34.7"/>
	<path class="st1" d="M28.4,24.4c0-2.3,2.6-3.3,3.9-4.8c1.4-1.6,2.1-3.6,2.1-5.8c0-4.4-3.6-8.1-8-8.2c-4.4,0.1-8,3.7-8,8.2
		c0,2.1,0.7,4.2,2.1,5.8c1.3,1.5,3.9,2.5,3.9,4.8H28.4z"/>
	<path class="st2" d="M6.5,12c-0.2,0-0.3-0.1-0.4-0.3s-0.1-0.3-0.1-0.5c0.1-0.5,0.2-0.9,0.4-1.4c0.5-1.3,1.2-2.5,2.1-3.5
		c1.1-1.1,2.9-2,5.3-2.5c0.4-0.1,0.7,0.2,0.8,0.5S14.4,5.2,14,5.2c-2.2,0.4-3.7,1.1-4.6,2.1c-0.8,0.9-1.4,1.9-1.8,3
		c-0.1,0.4-0.3,0.8-0.4,1.2C7.2,11.9,6.8,12.1,6.5,12z"/>
	<circle id="Oval" class="st2" cx="5.6" cy="14.4" r="0.7"/>
	<path class="st3" d="M24.4,28.5h4v0.7c0,1.1-0.9,2-2,2s-2-0.9-2-2V28.5z"/>
	<path class="st4" d="M39.1,14.4h-2c-0.4,0-0.7-0.3-0.7-0.7c0-0.4,0.3-0.7,0.7-0.7h2c0.4,0,0.7,0.3,0.7,0.7
		C39.8,14.1,39.5,14.4,39.1,14.4z"/>
	<path class="st4" d="M34,6.8c-0.3,0-0.5-0.2-0.6-0.4c-0.1-0.3,0-0.5,0.1-0.7l1.4-1.4c0.2-0.2,0.4-0.2,0.7-0.2s0.4,0.2,0.5,0.5
		c0.1,0.2,0,0.5-0.2,0.7l-1.4,1.4C34.3,6.8,34.2,6.8,34,6.8z"/>
	<path class="st4" d="M26.4,3.7c-0.4,0-0.7-0.3-0.7-0.7V1c0-0.4,0.3-0.7,0.7-0.7s0.7,0.3,0.7,0.7v2C27.1,3.4,26.8,3.7,26.4,3.7z"/>
	<path class="st4" d="M18.8,6.8c-0.2,0-0.3-0.1-0.5-0.2l-1.4-1.4c-0.2-0.2-0.2-0.4-0.2-0.7c0.1-0.2,0.2-0.4,0.5-0.5s0.5,0,0.7,0.2
		l1.4,1.4c0.2,0.2,0.2,0.5,0.1,0.7C19.3,6.7,19.1,6.8,18.8,6.8z"/>
	<path class="st4" d="M15.7,14.4h-2c-0.4,0-0.7-0.3-0.7-0.7c0-0.4,0.3-0.7,0.7-0.7h2c0.4,0,0.7,0.3,0.7,0.7
		C16.4,14.1,16.1,14.4,15.7,14.4z"/>
	<ellipse class="st5" cx="26.4" cy="12.4" rx="6" ry="6.7"/>
	<path class="st6" d="M27.7,25.1c-0.4,0-0.7-0.3-0.7-0.7v-8h-1.3v8c0,0.4-0.3,0.7-0.7,0.7s-0.7-0.3-0.7-0.7v-8h-0.7
		c-1.1,0-2-0.9-2-2s0.9-2,2-2s2,0.9,2,2v0.7h1.3v-0.7c0-1.1,0.9-2,2-2s2,0.9,2,2s-0.9,2-2,2h-0.7v8C28.4,24.8,28.1,25.1,27.7,25.1z
		 M28.4,15.1h0.7c0.4,0,0.7-0.3,0.7-0.7c0-0.4-0.3-0.7-0.7-0.7s-0.7,0.3-0.7,0.7V15.1z M23.7,13.7c-0.4,0-0.7,0.3-0.7,0.7
		c0,0.4,0.3,0.7,0.7,0.7h0.7v-0.7C24.4,14,24.1,13.7,23.7,13.7z"/>
	<path id="Rectangle-path" class="st7" d="M24.4,24.4h4c0.7,0,1.3,0.6,1.3,1.3v1.3c0,0.7-0.6,1.3-1.3,1.3h-4c-0.7,0-1.3-0.6-1.3-1.3
		v-1.3C23,25,23.6,24.4,24.4,24.4z"/>
</g>
</svg>
