<?xml version="1.0" encoding="utf-8"?>
<!-- Generator: Adobe Illustrator 23.0.1, SVG Export Plug-In . SVG Version: 6.00 Build 0)  -->
<svg version="1.1" id="Layer_1" xmlns="http://www.w3.org/2000/svg" xmlns:xlink="http://www.w3.org/1999/xlink" x="0px" y="0px"
	 width="40px" height="40px" viewBox="0 0 40 40" style="enable-background:new 0 0 40 40;" xml:space="preserve">
<style type="text/css">
	.st0{fill:#676767;}
	.st1{fill:#F2F2F2;}
	.st2{fill:#64C7CA;}
	.st3{fill:#EE9C3C;}
	.st4{fill:#F6CF4A;}
	.st5{fill:#E71E25;}
	.st6{fill:#FFFFFF;}
	.st7{fill:#FFCA11;}
	.st8{fill:#F9A11B;}
	.st9{fill:#C76F29;}
</style>
<g>
	<path class="st0" d="M30.5,0.4H13.7c-1.2,0-2.1,0.9-2.1,2.1v22.9c0,1.2,0.9,2.1,2.1,2.1h16.8c1.2,0,2.1-0.9,2.1-2.1V2.5
		C32.6,1.3,31.6,0.4,30.5,0.4z"/>
	<path class="st1" d="M29.6,2.7H14.5c-0.4,0-0.7,0.3-0.7,0.7v3.7c0,0.4,0.3,0.7,0.7,0.7h15.1c0.4,0,0.7-0.3,0.7-0.7V3.3
		C30.4,3,30,2.7,29.6,2.7z"/>
	<g>
		<path class="st2" d="M14.5,2.7c-0.4,0-0.7,0.3-0.7,0.7v3.7c0,0.4,0.3,0.7,0.7,0.7h3.1l5.2-5.2L14.5,2.7L14.5,2.7z"/>
		<path class="st2" d="M29.6,2.7H27l-5.2,5.2h7.8c0.4,0,0.7-0.3,0.7-0.7V3.3C30.4,3,30,2.7,29.6,2.7z"/>
	</g>
	<g>
		<path class="st3" d="M17.5,8.7h-3c-0.4,0-0.7,0.3-0.7,0.7v3c0,0.4,0.3,0.7,0.7,0.7h3c0.4,0,0.7-0.3,0.7-0.7v-3
			C18.2,9,17.9,8.7,17.5,8.7z"/>
		<path class="st3" d="M23.5,8.7h-3c-0.4,0-0.7,0.3-0.7,0.7v3c0,0.4,0.3,0.7,0.7,0.7h3c0.4,0,0.7-0.3,0.7-0.7v-3
			C24.3,9,23.9,8.7,23.5,8.7z"/>
		<path class="st3" d="M17.5,14.7h-3c-0.4,0-0.7,0.3-0.7,0.7v3c0,0.4,0.3,0.7,0.7,0.7h3c0.4,0,0.7-0.3,0.7-0.7v-3
			C18.2,15.1,17.9,14.7,17.5,14.7z"/>
		<path class="st3" d="M23.5,14.7h-3c-0.4,0-0.7,0.3-0.7,0.7v3c0,0.4,0.3,0.7,0.7,0.7h3c0.4,0,0.7-0.3,0.7-0.7v-3
			C24.3,15.1,23.9,14.7,23.5,14.7z"/>
		<path class="st3" d="M17.5,20.8h-3c-0.4,0-0.7,0.3-0.7,0.7v3c0,0.4,0.3,0.7,0.7,0.7h3c0.4,0,0.7-0.3,0.7-0.7v-3
			C18.2,21.1,17.9,20.8,17.5,20.8z"/>
		<path class="st3" d="M23.5,20.8h-3c-0.4,0-0.7,0.3-0.7,0.7v3c0,0.4,0.3,0.7,0.7,0.7h3c0.4,0,0.7-0.3,0.7-0.7v-3
			C24.3,21.1,23.9,20.8,23.5,20.8z"/>
		<path class="st3" d="M29.5,8.7h-3c-0.4,0-0.7,0.3-0.7,0.7v3c0,0.4,0.3,0.7,0.7,0.7h3c0.4,0,0.7-0.3,0.7-0.7v-3
			C30.3,9,30,8.7,29.5,8.7z"/>
	</g>
	<path class="st4" d="M29.6,14.7h-3c-0.4,0-0.7,0.3-0.7,0.7v9.1c0,0.4,0.3,0.7,0.7,0.7h3c0.4,0,0.7-0.3,0.7-0.7v-9.1
		C30.4,15.1,30,14.7,29.6,14.7z"/>
</g>
<path class="st5" d="M24.1,23.2h14.6c0.5,0,1,0.4,1,1v14.6c0,0.5-0.4,1-1,1H24.1c-0.5,0-1-0.4-1-1V24.2
	C23.1,23.7,23.5,23.2,24.1,23.2z"/>
<path class="st6" d="M34.8,37.3h-7.5c-0.3,0-0.6-0.2-0.8-0.5c-0.2-0.3-0.1-0.7,0.1-1c0,0,0,0,0.1-0.1l4.4-3.9
	c0.1-0.1,0.2-0.2,0.2-0.4c0-0.1-0.1-0.3-0.2-0.4l-4.4-3.9c0,0,0,0-0.1-0.1c-0.2-0.3-0.3-0.6-0.1-1c0.1-0.3,0.5-0.5,0.8-0.5h7.5
	c0.5,0,0.9,0.4,0.9,0.9v1.2c0,0.3-0.2,0.5-0.5,0.5s-0.5-0.2-0.5-0.5v-1.2h-7.2l4.2,3.8c0.3,0.3,0.5,0.7,0.5,1.1
	c0,0.4-0.2,0.8-0.5,1.1l-4.2,3.8h7.2v-1.2c0-0.3,0.2-0.5,0.5-0.5s0.5,0.2,0.5,0.5v1.2C35.7,36.9,35.3,37.3,34.8,37.3z"/>
<g>
	<path class="st7" d="M1.1,15.1v19.1c0,0.3,0.3,0.6,0.6,0.6h19.1c0.2,0,0.4-0.2,0.5-0.4c0.1-0.2,0.1-0.4-0.1-0.6L2,14.6
		c-0.1-0.1-0.4-0.2-0.6-0.1C1.2,14.6,1.1,14.8,1.1,15.1z M5.7,30.2v-6.2l6.2,6.2H5.7z"/>
	<path class="st8" d="M1.4,14.5c0.2-0.1,0.5,0,0.6,0.1l1.6,1.6v18.6H1.7c-0.3,0-0.6-0.3-0.6-0.6V15.1C1.1,14.8,1.2,14.6,1.4,14.5z"
		/>
	<g>
		<path class="st9" d="M1.1,21.4h2.2c0.3,0,0.6,0.3,0.6,0.6c0,0.3-0.3,0.6-0.6,0.6H1.1V21.4z"/>
		<path class="st9" d="M1.1,24.2h2.2c0.3,0,0.6,0.3,0.6,0.6c0,0.3-0.3,0.6-0.6,0.6H1.1V24.2z"/>
		<path class="st9" d="M1.1,27.1h2.2c0.3,0,0.6,0.3,0.6,0.6s-0.3,0.6-0.6,0.6H1.1V27.1z"/>
		<path class="st9" d="M1.1,29.8h2.2c0.3,0,0.6,0.3,0.6,0.6c0,0.3-0.3,0.6-0.6,0.6H1.1V29.8z"/>
	</g>
</g>
</svg>
