<svg width="15" height="14" viewBox="0 0 15 14" fill="none" xmlns="http://www.w3.org/2000/svg">
<path fill-rule="evenodd" clip-rule="evenodd" d="M3.18042 0.000368869C3.94323 0.0106125 4.48683 0.582207 5.17452 1.30541C5.34456 1.48365 5.52826 1.67828 5.73382 1.88315C6.73018 2.8802 6.44677 3.69354 6.218 4.3464C5.96942 5.05867 5.7543 5.67329 7.04227 6.96126C8.33024 8.24922 8.94417 8.03411 9.65576 7.78348C10.3093 7.55539 11.1206 7.26993 12.119 8.26698C12.3218 8.4698 12.5131 8.65146 12.6906 8.82014C13.4165 9.51124 13.9902 10.0569 13.9999 10.8217C14.0073 11.4732 13.6112 12.1384 12.6332 13.1163L12.2003 12.8227L12.567 13.1798C12.3505 13.4018 11.7748 13.9932 10.6473 14H10.6269C8.92505 14 6.70628 12.6451 4.03201 9.97152C1.34681 7.28701 -0.0101291 5.06141 5.69221e-05 3.35618C0.00626067 2.22938 0.596977 1.65233 0.818922 1.43584L0.837867 1.41515L0.883799 1.36892C1.86377 0.388944 2.53712 -0.0139722 3.18042 0.000368869ZM3.16745 1.02473H3.16198C2.85531 1.02473 2.38959 1.33204 1.74005 1.96298L1.60962 2.09107L1.6111 2.09075C1.61192 2.09075 1.59995 2.10354 1.58096 2.12291L1.53529 2.1686C1.37003 2.32909 1.02789 2.66303 1.02444 3.36165C1.01901 4.33889 1.66163 6.15338 4.75589 9.24695C7.83513 12.3255 9.64689 12.9756 10.6269 12.9756H10.6412C11.3398 12.9715 11.6731 12.6294 11.8336 12.4648C11.882 12.415 11.9217 12.3774 11.9497 12.3549C12.6305 11.6699 12.9788 11.1611 12.9754 10.834C12.9713 10.5008 12.5568 10.1074 11.9838 9.56178C11.8015 9.389 11.6034 9.19983 11.3944 8.99086C10.8522 8.45068 10.5852 8.54288 9.99449 8.75048C9.17841 9.03662 8.06049 9.42861 6.31839 7.68514C4.5756 5.94304 4.96623 4.82512 5.251 4.00836C5.45724 3.41833 5.55148 3.14994 5.00993 2.60771C4.79823 2.39601 4.6077 2.19524 4.43219 2.01085C3.88996 1.44131 3.49866 1.02951 3.16745 1.02473ZM9.04599 2.42982C10.4671 2.70571 11.5646 3.80246 11.8411 5.22428C11.8951 5.50291 11.7141 5.77129 11.4369 5.82524C11.4034 5.83139 11.3706 5.8348 11.3378 5.8348C11.0975 5.8348 10.8837 5.66544 10.8359 5.42096C10.6392 4.41025 9.86002 3.63105 8.85068 3.43506C8.57274 3.38111 8.39177 3.11273 8.44572 2.83478C8.49967 2.55684 8.77283 2.37518 9.04599 2.42982ZM9.00509 0.00426145C11.79 0.313619 13.9528 2.47366 14.2649 5.25788C14.2963 5.53924 14.0941 5.7926 13.8134 5.82401C13.7943 5.82606 13.7745 5.82743 13.7554 5.82743C13.4979 5.82743 13.2767 5.63416 13.2473 5.37261C12.9885 3.06711 11.1979 1.27789 8.89173 1.0218C8.61105 0.990382 8.40823 0.737706 8.43964 0.456347C8.47037 0.175672 8.721 -0.0312498 9.00509 0.00426145Z" fill="#091138" fill-opacity="0.9"/>
</svg>
