<svg width="12" height="12" viewBox="0 0 12 12" fill="none" xmlns="http://www.w3.org/2000/svg">
<path d="M6.00001 1.08108C7.60206 1.08108 7.79184 1.0872 8.42451 1.11607C9.00951 1.14274 9.3272 1.24049 9.53863 1.32266C9.81869 1.4315 10.0186 1.56152 10.2285 1.77146C10.4385 1.98143 10.5685 2.18131 10.6773 2.46137C10.7595 2.6728 10.8573 2.99049 10.8839 3.57549C10.9128 4.20816 10.9189 4.39794 10.9189 5.99999C10.9189 7.60207 10.9128 7.79184 10.8839 8.42452C10.8573 9.00951 10.7595 9.3272 10.6773 9.53863C10.5685 9.81869 10.4385 10.0186 10.2285 10.2285C10.0186 10.4385 9.81869 10.5685 9.53863 10.6773C9.3272 10.7595 9.00951 10.8573 8.42451 10.8839C7.79193 10.9128 7.60218 10.9189 6.00001 10.9189C4.39782 10.9189 4.20809 10.9128 3.57548 10.8839C2.99049 10.8573 2.6728 10.7595 2.46137 10.6773C2.18131 10.5685 1.98143 10.4385 1.77149 10.2285C1.56154 10.0186 1.4315 9.81869 1.32266 9.53863C1.24049 9.3272 1.14274 9.00951 1.11607 8.42452C1.0872 7.79184 1.08108 7.60207 1.08108 5.99999C1.08108 4.39794 1.0872 4.20816 1.11607 3.57549C1.14274 2.99049 1.24049 2.6728 1.32266 2.46137C1.4315 2.18131 1.56152 1.98143 1.77149 1.77149C1.98143 1.56152 2.18131 1.4315 2.46137 1.32266C2.6728 1.24049 2.99049 1.14274 3.57548 1.11607C4.20816 1.0872 4.39793 1.08108 6.00001 1.08108ZM6.00001 0C4.3705 0 4.16617 0.00690694 3.52621 0.0361066C2.88758 0.0652349 2.45142 0.166672 2.06977 0.31498C1.67522 0.468314 1.34061 0.673474 1.00703 1.00703C0.673474 1.34061 0.468314 1.67522 0.315004 2.06977C0.166672 2.45142 0.0652349 2.88758 0.0361066 3.52621C0.00690694 4.16617 0 4.3705 0 5.99999C0 7.6295 0.00690694 7.83383 0.0361066 8.47379C0.0652349 9.11242 0.166672 9.54858 0.315004 9.93023C0.468314 10.3248 0.673474 10.6594 1.00703 10.993C1.34061 11.3265 1.67522 11.5317 2.06977 11.685C2.45142 11.8333 2.88758 11.9348 3.52621 11.9639C4.16617 11.9931 4.3705 12 6.00001 12C7.6295 12 7.83383 11.9931 8.47379 11.9639C9.11242 11.9348 9.54858 11.8333 9.93023 11.685C10.3248 11.5317 10.6594 11.3265 10.993 10.993C11.3265 10.6594 11.5317 10.3248 11.685 9.93023C11.8333 9.54858 11.9348 9.11242 11.9639 8.47379C11.9931 7.83383 12 7.6295 12 5.99999C12 4.3705 11.9931 4.16617 11.9639 3.52621C11.9348 2.88758 11.8333 2.45142 11.685 2.06977C11.5317 1.67522 11.3265 1.34061 10.993 1.00703C10.6594 0.673474 10.3248 0.468314 9.93023 0.31498C9.54858 0.166672 9.11242 0.0652349 8.47379 0.0361066C7.83383 0.00690694 7.6295 0 6.00001 0Z" fill="#091138" fill-opacity="0.9"/>
<path d="M6.00394 2.92188C4.30229 2.92188 2.92285 4.30131 2.92285 6.00294C2.92285 7.7046 4.30229 9.08404 6.00394 9.08404C7.70558 9.08404 9.08501 7.7046 9.08501 6.00294C9.08501 4.30131 7.70558 2.92188 6.00394 2.92188ZM6.00394 8.00296C4.89936 8.00296 4.00393 7.10753 4.00393 6.00294C4.00393 4.89838 4.89936 4.00295 6.00394 4.00295C7.10851 4.00295 8.00393 4.89838 8.00393 6.00294C8.00393 7.10753 7.10851 8.00296 6.00394 8.00296Z" fill="#091138" fill-opacity="0.9"/>
<path d="M9.92438 2.79814C9.92438 3.19577 9.60201 3.51813 9.20436 3.51813C8.80674 3.51813 8.48438 3.19577 8.48438 2.79814C8.48438 2.40049 8.80674 2.07812 9.20436 2.07812C9.60201 2.07812 9.92438 2.40049 9.92438 2.79814Z" fill="#091138" fill-opacity="0.9"/>
</svg>
