<svg width="12" height="12" viewBox="0 0 12 12" fill="none" xmlns="http://www.w3.org/2000/svg">
<path d="M3.15181 9.89639L3.58621 10.1502C4.31877 10.5774 5.15196 10.8017 6 10.8C6.94935 10.8 7.87738 10.5185 8.66674 9.99105C9.45609 9.46362 10.0713 8.71396 10.4346 7.83687C10.7979 6.95979 10.893 5.99467 10.7078 5.06356C10.5226 4.13245 10.0654 3.27718 9.39411 2.60589C8.72282 1.93459 7.86755 1.47744 6.93644 1.29223C6.00533 1.10702 5.04021 1.20208 4.16313 1.56538C3.28604 1.92868 2.53638 2.54391 2.00895 3.33326C1.48152 4.12262 1.20001 5.05065 1.20001 6C1.20001 6.8616 1.42621 7.6878 1.85041 8.41439L2.10361 8.84879L1.71181 10.2894L3.15181 9.89639ZM0.00240803 12L0.813608 9.01919C0.279091 8.10291 -0.00173438 7.06079 8.05934e-06 6C8.05934e-06 2.6862 2.68621 0 6 0C9.3138 0 12 2.6862 12 6C12 9.31379 9.3138 12 6 12C4.93967 12.0017 3.898 11.7211 2.98201 11.187L0.00240803 12ZM3.83461 3.1848C3.91501 3.1788 3.99601 3.1788 4.07641 3.1824C4.10881 3.1848 4.14121 3.1884 4.17361 3.192C4.26901 3.2028 4.37401 3.261 4.40941 3.3414C4.5882 3.747 4.76221 4.1556 4.9302 4.5654C4.9674 4.6566 4.9452 4.7736 4.8744 4.8876C4.82571 4.96468 4.77304 5.03918 4.71661 5.1108C4.64881 5.1978 4.50301 5.3574 4.50301 5.3574C4.50301 5.3574 4.44361 5.4282 4.46641 5.5164C4.47481 5.55 4.5024 5.5986 4.5276 5.6394L4.563 5.6964C4.7166 5.9526 4.923 6.2124 5.175 6.4572C5.247 6.5268 5.3172 6.5982 5.3928 6.6648C5.6736 6.9126 5.9916 7.1148 6.3348 7.2648L6.3378 7.266C6.3888 7.2882 6.4146 7.3002 6.489 7.332C6.5262 7.3476 6.5646 7.3614 6.6036 7.3716C6.64391 7.38186 6.68635 7.37993 6.72555 7.36604C6.76475 7.35215 6.79895 7.32694 6.8238 7.2936C7.2582 6.7674 7.2978 6.7332 7.3014 6.7332V6.7344C7.33158 6.70625 7.36743 6.68488 7.40655 6.67174C7.44567 6.6586 7.48715 6.65398 7.5282 6.6582C7.5642 6.6606 7.6008 6.6672 7.6344 6.6822C7.953 6.828 8.4744 7.0554 8.4744 7.0554L8.8236 7.212C8.8824 7.2402 8.9358 7.3068 8.9376 7.371C8.94 7.4112 8.9436 7.476 8.9298 7.5948C8.9106 7.7502 8.8638 7.93679 8.817 8.03459C8.78495 8.10134 8.74241 8.16251 8.691 8.21579C8.63046 8.27936 8.56418 8.33721 8.493 8.38859C8.46838 8.40711 8.44337 8.42511 8.418 8.44259C8.34338 8.48994 8.2667 8.53399 8.1882 8.57459C8.03372 8.65665 7.8631 8.70376 7.6884 8.71259C7.5774 8.71859 7.4664 8.72699 7.3548 8.72099C7.35 8.72099 7.014 8.66879 7.014 8.66879C6.16096 8.44442 5.37204 8.02407 4.71001 7.4412C4.57441 7.3218 4.44901 7.1934 4.32061 7.0656C3.78661 6.5346 3.38341 5.9616 3.13861 5.4204C3.01331 5.15477 2.94563 4.86564 2.94001 4.572C2.93753 4.20771 3.05661 3.853 3.27841 3.564C3.32221 3.5076 3.36361 3.4488 3.43501 3.381C3.51121 3.309 3.55921 3.2706 3.61141 3.2442C3.68081 3.20942 3.75652 3.18901 3.83401 3.1842L3.83461 3.1848Z" fill="#091138" fill-opacity="0.9"/>
</svg>
