<svg xmlns="http://www.w3.org/2000/svg" viewBox="0 0 500 500"><g id="freepik--background-complete--inject-2"><path d="M136.31,126.37h0a34.26,34.26,0,0,1-34.26-34.26h0a34.26,34.26,0,0,1,34.26-34.26h0a34.26,34.26,0,0,1,34.26,34.26h0A34.26,34.26,0,0,1,136.31,126.37Z" style="fill:#ebebeb"></path><rect x="120.77" y="84.48" width="7.09" height="22.91" style="fill:#fff"></rect><path d="M124.28,81.48a4.23,4.23,0,1,0-4.19-4.23A4.22,4.22,0,0,0,124.28,81.48Z" style="fill:#fff"></path><path d="M139.2,95.36c0-3.22,1.48-5.14,4.32-5.14,2.6,0,3.86,1.84,3.86,5.14v12h7.05V92.88c0-6.14-3.47-9.1-8.33-9.1a8,8,0,0,0-6.9,3.78V84.48h-6.81v22.9h6.81Z" style="fill:#fff"></path><polygon points="182.22 23.89 186.91 32.46 195.49 37.16 186.91 41.85 182.22 50.42 177.53 41.85 168.95 37.16 177.53 32.46 182.22 23.89" style="fill:#f5f5f5"></polygon><polygon points="377.87 256.27 381.39 262.71 387.82 266.22 381.39 269.74 377.87 276.18 374.35 269.74 367.92 266.22 374.35 262.71 377.87 256.27" style="fill:#ebebeb"></polygon><polygon points="387.82 224.51 389.41 227.41 392.31 229 389.41 230.59 387.82 233.49 386.24 230.59 383.33 229 386.24 227.41 387.82 224.51" style="fill:#e0e0e0"></polygon><polygon points="148.71 27.11 150.3 30.02 153.2 31.6 150.3 33.19 148.71 36.09 147.13 33.19 144.22 31.6 147.13 30.02 148.71 27.11" style="fill:#e0e0e0"></polygon><path d="M69.13,296.76a10.39,10.39,0,0,0,6.06-9.68c0-5.73-4.45-10.33-9.82-10.29s-9.68,4.73-9.63,10.46a10.34,10.34,0,0,0,6.32,9.6C47.12,299.3,48,315.56,48,315.56l35.39-.3S84,298.81,69.13,296.76Z" style="fill:#e0e0e0"></path><path d="M408.64,403.94a5.51,5.51,0,0,0-10.87.32A5.51,5.51,0,0,0,386.9,404a7.43,7.43,0,0,0,1.34,5.37,21.83,21.83,0,0,0,3.88,4.1c2,1.77,3.81,3.42,5.79,5.18,2-1.78,3.63-3.45,5.59-5.23a21.59,21.59,0,0,0,3.85-4.14A7.45,7.45,0,0,0,408.64,403.94Z" style="fill:#ebebeb"></path><path d="M431.69,193.15l3.79-.75,6-13.18-1.5-7.57s5.79-1.52,7.07,8.53,1.52,7.38,1.52,7.38,12.45-2.42,13.7-1.55c.91.64,3.7,12.94,5.16,19.62a7.39,7.39,0,0,1-3.69,8.33,5.19,5.19,0,0,1-1.31.44c-3.1.62-19.46,1.24-19.46,1.24l-6.55,1.3Z" style="fill:#e0e0e0"></path><polygon points="420.42 193.22 427.89 218.7 434.39 217.41 429.35 192 420.42 193.22" style="fill:#e0e0e0"></polygon></g><g id="freepik--Icons--inject-2"><path d="M393.43,183.15h0a40.64,40.64,0,0,1-54.31-18.77h0a40.64,40.64,0,0,1,18.77-54.31h0a40.63,40.63,0,0,1,54.31,18.77h0A40.63,40.63,0,0,1,393.43,183.15Z" style="fill:#5E79FF"></path><path d="M365.62,155.69a1,1,0,0,0,.95-1.23c-.1-.49-.37-1.73-.47-2.24-.14-.71-.31-.9-1-1.22a8,8,0,0,1-4-4.09c-3.06-6.3-1.09-14.23,6.47-17.9,6.69-3.26,12.36-1,15,4.5,3.49,7.19,3.26,14.8-1.46,17.1a4.29,4.29,0,0,1-6.27-2.89c-.78-3.52-1-7.63-2.1-9.91-1-2-2.92-3.21-5.18-2.11-2.67,1.3-3.47,5.1-1.67,8.79a10.68,10.68,0,0,0,2.71,3.56s2.9,12.88,3.4,15.14c1,4.49,4.22,9,4.53,9.51a.38.38,0,0,0,.67-.15c.09-.44,1.36-5.9.53-10.34-.23-1.26-1.58-7.71-1.58-7.71,1.67,1.23,4.91,1.46,7.6.15,8-3.9,9.9-13.85,5.14-23.63-3.59-7.39-13.21-11.23-22.72-6.6-11.85,5.76-13.69,17.15-10.25,24.23C358,152.94,361.45,156,365.62,155.69Z" style="fill:#fff"></path><path d="M434,297.76h0a28,28,0,0,1-16.17-36.18h0A28,28,0,0,1,454,245.4h0a28,28,0,0,1,16.17,36.18h0A28,28,0,0,1,434,297.76Z" style="fill:#5E79FF"></path><path d="M458.64,276.34a15.09,15.09,0,0,0-28.07-11c-.09.2-.17.41-.25.61a14.82,14.82,0,0,0-.74,8l-5.41,6.53,8.76.5a15.09,15.09,0,0,0,25.58-4.26A3.62,3.62,0,0,0,458.64,276.34Zm-18.72,6.73a12.6,12.6,0,0,1-5.77-4.44l-5.11-.29,3.15-3.8a12.47,12.47,0,0,1,.37-7.76c.15-.38.32-.76.5-1.12a12.69,12.69,0,0,1,23.52,9.24c-.09.32-.19.63-.31.94A12.65,12.65,0,0,1,439.92,283.07Z" style="fill:#fff;fill-rule:evenodd"></path><path d="M449.8,276.6c-.29-.3-1.66-1.78-1.94-2s-.48-.38-.84-.12-1.33.77-1.61.92-.5.1-.78-.2a10.09,10.09,0,0,1-2.13-2.77,11,11,0,0,1-1-3.1c-.06-.42.18-.54.42-.64s.5-.27.75-.4l.19-.12a3.53,3.53,0,0,0,.37-.33.65.65,0,0,0,.21-.61c0-.2-.07-2.16-.1-2.95s-.36-.79-.56-.87-.42-.2-.65-.28a1.37,1.37,0,0,0-1.09.07,4.16,4.16,0,0,0-2.3,2.41,4.66,4.66,0,0,0-.27,1.23,8.26,8.26,0,0,0,.33,2.85c.09.29.94,4.71,3.92,7.43s3.17,2.26,3.83,2.44a3.67,3.67,0,0,0,3-.74,3,3,0,0,0,.83-1.55C450.27,277.08,450.08,276.9,449.8,276.6Z" style="fill:#fff;fill-rule:evenodd"></path><path d="M69.63,168.24h0a21.37,21.37,0,0,1-21.37-21.37h0A21.37,21.37,0,0,1,69.63,125.5h0A21.37,21.37,0,0,1,91,146.87h0A21.37,21.37,0,0,1,69.63,168.24Z" style="fill:#5E79FF"></path><path d="M58.25,154a13.3,13.3,0,0,0,20.44-11.8A9.58,9.58,0,0,0,81,139.81a9.65,9.65,0,0,1-2.69.74A4.7,4.7,0,0,0,80.39,138a9.14,9.14,0,0,1-3,1.13,4.68,4.68,0,0,0-8,4.27,13.29,13.29,0,0,1-9.63-4.89,4.69,4.69,0,0,0,1.45,6.24,4.6,4.6,0,0,1-2.12-.58,4.68,4.68,0,0,0,3.75,4.64,4.67,4.67,0,0,1-2.11.08,4.68,4.68,0,0,0,4.36,3.24A9.39,9.39,0,0,1,58.25,154Z" style="fill:#fff"></path><path d="M108,407.61h0A36.8,36.8,0,0,1,63.7,380.34h0A36.8,36.8,0,0,1,91,336h0a36.8,36.8,0,0,1,44.33,27.27h0A36.8,36.8,0,0,1,108,407.61Z" style="fill:#455a64"></path><path d="M95.67,355.72c5.24-1.25,5.87-1.38,8-1.78a11.18,11.18,0,0,1,3.8-.19,6.29,6.29,0,0,1,2.61.93,6.43,6.43,0,0,1,2,1.91,11.22,11.22,0,0,1,1.54,3.48c.59,2.05.76,2.67,2,7.91s1.37,5.87,1.77,8a10.92,10.92,0,0,1,.19,3.8,6,6,0,0,1-.93,2.61,6.29,6.29,0,0,1-1.9,2,11.31,11.31,0,0,1-3.49,1.54c-2,.59-2.66.76-7.9,2s-5.87,1.38-8,1.78a11,11,0,0,1-3.81.19,6.2,6.2,0,0,1-2.61-.93A6.08,6.08,0,0,1,87,387a11.06,11.06,0,0,1-1.55-3.48c-.58-2.05-.75-2.66-2-7.9s-1.38-5.87-1.78-8a11.52,11.52,0,0,1-.19-3.81,6.64,6.64,0,0,1,2.84-4.61,11.17,11.17,0,0,1,3.48-1.55c2-.58,2.67-.75,7.91-2m-.84-3.54c-5.33,1.27-6,1.45-8.07,2.05a14.62,14.62,0,0,0-4.55,2,10.36,10.36,0,0,0-4.37,7.1,14.85,14.85,0,0,0,.22,5c.41,2.11.54,2.79,1.81,8.12s1.45,6,2,8.06a14.51,14.51,0,0,0,2,4.55A9.91,9.91,0,0,0,87.06,392a9.8,9.8,0,0,0,4,1.43,14.79,14.79,0,0,0,5-.22c2.11-.4,2.79-.54,8.12-1.81s6-1.45,8.06-2a15,15,0,0,0,4.55-2,9.91,9.91,0,0,0,2.94-3.09,10.07,10.07,0,0,0,1.44-4,14.84,14.84,0,0,0-.23-5c-.4-2.12-.54-2.79-1.81-8.12s-1.45-6-2-8.07a15.1,15.1,0,0,0-2-4.55,9.88,9.88,0,0,0-3.09-2.93,9.73,9.73,0,0,0-4-1.44,14.79,14.79,0,0,0-5,.22c-2.12.41-2.79.54-8.12,1.81" style="fill:#fff"></path><path d="M97.1,361.73a10.36,10.36,0,1,0,12.48,7.68,10.37,10.37,0,0,0-12.48-7.68m4,16.63a6.73,6.73,0,1,1,5-8.11,6.73,6.73,0,0,1-5,8.11" style="fill:#fff"></path><path d="M109.84,358.28a2.42,2.42,0,1,1-2.92-1.8,2.41,2.41,0,0,1,2.92,1.8" style="fill:#fff"></path><path d="M386.81,375.22h0a17.16,17.16,0,0,1-17.17-17.16h0a17.16,17.16,0,0,1,17.17-17.16h0A17.16,17.16,0,0,1,404,358.06h0A17.16,17.16,0,0,1,386.81,375.22Z" style="fill:#455a64"></path><path d="M384.19,368.43h4.18V358h2.91l.32-3.5h-3.23v-2c0-.82.17-1.15,1-1.15h2.27v-3.64h-2.9c-3.11,0-4.51,1.37-4.51,4v2.8H382V358h2.17Z" style="fill:#fff"></path></g><g id="freepik--Megaphone--inject-2"><path d="M266,377.3l3.54-11.89c.62-2.58,1.44-5.62,2.54-9.09,1-3.12,3.54-6.4,5.86-8.76,3.61-3.67,5.33-3.69,7.75-5.64.22-.14.47-.35.68-.46a3.81,3.81,0,0,0,1.18-1c2.09-2.26.08-5.77-4.17-5.43-3.19.25-8.41,1.16-16.89,9.91-.11.14-.22.25-.32.38-4.45,5.79-8.63-10.73-9.39-16.88a6.43,6.43,0,0,0-8.71-5l-20.66,9.66a9.67,9.67,0,0,0-6,.2,6.16,6.16,0,0,0-3.94,7.29L225.86,374l-24.61,81.9H254.3Z" style="fill:#ffbe9d"></path><path d="M306.8,302.08l-16.4,32.14-8.2-2.28L241,365.47a8.34,8.34,0,0,1-11.59-1l-15.7-18.23s31.65-13.63,37.5-24.91-.91-13.85-.91-13.85l14.89-16.92Z" style="fill:#5E79FF"></path><path d="M285.53,236.44s-24-5.31-57.79-37.79S178.09,123,174,123.24s-22.19-8.17-56.53,66.52-20.81,92-14,91.9,53.22-13.07,82.2-9.78,66.23,18.4,66.23,18.4Z" style="fill:#5E79FF"></path><path d="M336.52,277.15l-8.19,15.57-3.67,7a20.32,20.32,0,0,1-26.49,9l-51.45-17.93,30-68.4,51.4,27.39A20.32,20.32,0,0,1,336.52,277.15Z" style="fill:#5E79FF"></path><g style="opacity:0.4"><path d="M336.52,277.15l-8.19,15.57-3.67,7a20.32,20.32,0,0,1-26.49,9l-51.45-17.93,30-68.4,51.4,27.39A20.32,20.32,0,0,1,336.52,277.15Z"></path></g><path d="M120.21,191.12c-18.27,40.46-25.88,76.52-17,80.53s30.91-25.53,49.18-66,25.88-76.51,17-80.53S138.48,150.66,120.21,191.12Z" style="fill:#5E79FF"></path><g style="opacity:0.5"><path d="M120.21,191.12c-18.27,40.46-25.88,76.52-17,80.53s30.91-25.53,49.18-66,25.88-76.51,17-80.53S138.48,150.66,120.21,191.12Z"></path></g><polygon points="340.94 299.65 326.99 295.27 335.62 278.87 346.08 285.37 340.94 299.65" style="fill:#5E79FF"></polygon><g style="opacity:0.6000000000000001"><polygon points="335.62 278.87 326.99 295.27 329.86 296.17 336.87 279.64 335.62 278.87"></polygon></g><path d="M326,282.65c-.2.45-7.16-2.25-15.54-6s-15-7.23-14.81-7.68,7.16,2.26,15.55,6.05S326.21,282.2,326,282.65Z" style="fill:#5E79FF"></path><path d="M330.3,272.88c-.22.44-6.52-2.21-14.07-5.93s-13.49-7.09-13.27-7.54,6.51,2.21,14.06,5.93S330.52,272.43,330.3,272.88Z" style="fill:#5E79FF"></path><path d="M320.6,292.9c-.07.24-1.73-.14-4.37-1-1.32-.41-2.89-.93-4.62-1.52s-3.5-1.53-5.41-2.4c-7.63-3.54-13.46-7-13.27-7.42s6.46,2.29,14,5.8c1.9.86,3.66,1.8,5.32,2.49s3.15,1.3,4.4,1.86C319.15,291.86,320.67,292.66,320.6,292.9Z" style="fill:#5E79FF"></path><path d="M157.46,182.13s-20.86-12.94-32.27,15.25,10.53,32.82,10.53,32.82A187.63,187.63,0,0,0,157.46,182.13Z" style="fill:#5E79FF"></path><g style="opacity:0.5"><path d="M179.65,148.53c.13,0-.17,1.94-.81,5.39s-1.6,8.44-2.94,14.58L173,178.37q-.79,2.65-1.63,5.49l-.85,2.87c-.31,1-.72,1.91-1.08,2.88l-4.71,12.16c-.41,1.06-.83,2.12-1.24,3.19s-1,2.09-1.47,3.15l-3.1,6.4-3.11,6.39c-.53,1-1,2.12-1.57,3.1s-1.17,2-1.74,2.95l-6.65,11.23c-.54.88-1,1.79-1.6,2.63l-1.73,2.45-3.32,4.68-6,8.37c-4,4.83-7.34,8.64-9.64,11.29a32.77,32.77,0,0,1-3.73,4,32.31,32.31,0,0,1,3.2-4.42c2.22-2.83,5.35-6.79,9.19-11.66l5.75-8.43,3.22-4.69c.56-.8,1.12-1.62,1.69-2.45s1-1.74,1.55-2.63L151,226.1l1.71-2.94c.59-1,1-2,1.55-3.08l3.08-6.35c1-2.15,2.07-4.26,3.09-6.35.48-1,1.06-2.06,1.46-3.12l1.25-3.16,4.78-12c.37-1,.79-1.89,1.11-2.85s.59-1.9.88-2.84l1.7-5.43,3.07-9.75,3.47-14.4A32.28,32.28,0,0,1,179.65,148.53Z"></path></g><g style="opacity:0.4"><path d="M218.69,344c1.91,3.46,3.85,7,6.66,9.73S232,358.4,236,358s7.65-3.66,7.69-7.6c1.88,1.41,4.77.65,6.33-1.12s2.07-4.22,2.25-6.57c2.56,1.51,6.12.32,7.83-2.11a10.14,10.14,0,0,0,1-8.56,30.17,30.17,0,0,0-4.11-7.87c2,.16,4.06.3,5.82-.59s3-3.23,1.93-4.91a4.83,4.83,0,0,0-2.87-1.83c-3.09-1-5.25-1.74-8.47-1.37-.74,0,1.29,8.48-18.88,20.06C222.55,342.38,218.69,344,218.69,344Z"></path></g><path d="M264.11,356.2c0,.09-1.35-.17-3.53-.11a20,20,0,0,0-14.82,7.11c-1.41,1.66-2,2.87-2.13,2.82a3.08,3.08,0,0,1,.39-.88,17.51,17.51,0,0,1,1.45-2.18,19,19,0,0,1,15.11-7.24,15.23,15.23,0,0,1,2.6.24A2.73,2.73,0,0,1,264.11,356.2Z" style="fill:#eb996e"></path><path d="M220,338.59c3.25,3.12,5.47,6.57,8.88,9.71,1.55,1.43,4,4.13,6,4.49s3.4.09,4.22-1.85c.67-1.57-.53-3.72-1.35-5-2.17-3.41-4.25-6.07-5.87-8.72-.77-1.24.22-1.5.58-.92,1.56,1.62,3.9,3,5.3,4.79,1.92,2.41,2.26,5.62,7.28,4.6a4.38,4.38,0,0,0,1.86-.77c1.89-1.45,2-4,1.18-6a16.32,16.32,0,0,0-2.8-4.22c2.14,2.41,4.47,5,7.87,5.22a4.67,4.67,0,0,0,4.75-2.57c1-2.28-.43-4.49-1.88-6.27a65.68,65.68,0,0,0-8.53-8.72,6.53,6.53,0,0,0-4.14-1.53c-1.76,0-4,.32-5,1.84a6.85,6.85,0,0,0-1.37,5.23s-4.4-2.23-7.94.1a11.26,11.26,0,0,0-4.42,6.36Z" style="fill:#ffbe9d"></path><path d="M243.45,319.87a5.28,5.28,0,0,1-.62-6c.75-1.47,1.69-2.9,2.65-3.22,4.19-1.41,22.51,1.76,22.34,5.82s-1.51,6-11.44,4.57c-1.75-.25-4.49-.59-4.49-.59l-2.4,3.6Z" style="fill:#ffbe9d"></path><path d="M246.73,336.89a23.89,23.89,0,0,0-10.09-9.15,5.82,5.82,0,0,1,1.94.68,17.41,17.41,0,0,1,7.28,6.6A5.59,5.59,0,0,1,246.73,336.89Z" style="fill:#eb996e"></path><path d="M249.81,324.4c-.09.08-1.3-.9-2.95-1.91a21.46,21.46,0,0,0-2.14-1.19c-.57-.26-.95-.33-.94-.41s.43-.12,1.06.07a9.7,9.7,0,0,1,2.3,1.09C248.83,323.08,249.94,324.29,249.81,324.4Z" style="fill:#eb996e"></path><path d="M252.89,320.62a7.83,7.83,0,0,1-3.53-.4A6.52,6.52,0,0,1,247.1,319c-.5-.43-.71-.78-.66-.83a15,15,0,0,0,3.07,1.52A26.31,26.31,0,0,1,252.89,320.62Z" style="fill:#eb996e"></path><path d="M235.09,341.92a13,13,0,0,1-1.67-2.17,19.43,19.43,0,0,0-4.27-4.86,8.59,8.59,0,0,0-6.06-1.6,10.28,10.28,0,0,0-2.55.81s.18-.21.59-.46a5.58,5.58,0,0,1,1.9-.72,8.54,8.54,0,0,1,6.42,1.55,17.32,17.32,0,0,1,4.28,5.07A16.28,16.28,0,0,1,235.09,341.92Z" style="fill:#eb996e"></path><path d="M249.1,382.42a56,56,0,0,1-7.48,1.07,54.22,54.22,0,0,1-7.55.56,56.34,56.34,0,0,1,7.49-1.07A56,56,0,0,1,249.1,382.42Z" style="fill:#eb996e"></path></g></svg>