<svg width="369" height="441" viewBox="0 0 369 441" fill="none" xmlns="http://www.w3.org/2000/svg">
<path d="M198.138 119.319L190.19 308.324C190.19 314.006 187.18 319.254 182.278 322.11L142.219 350.522L106.22 376.063C100.111 379.625 86.2988 369.175 86.2988 362.097V176.435C86.2988 173.545 87.1336 170.762 88.6365 168.405C89.8953 166.42 91.6273 164.735 93.7303 163.51L181.481 112.357C185.341 110.102 198.138 114.842 198.138 119.319Z" fill="url(#paint0_linear_1036_1395)"/>
<path d="M142.217 197.208V350.52L106.218 376.061C100.109 379.624 86.2969 369.173 86.2969 362.095V176.435C86.2969 173.545 87.1316 170.762 88.6346 168.405L142.217 197.208Z" fill="url(#paint1_linear_1036_1395)"/>
<path d="M108.762 374.802L190.955 326.893C195.857 324.035 198.873 318.788 198.873 313.111V122.147C198.873 117.676 194.023 114.888 190.16 117.14L102.407 168.292C97.8075 170.972 94.9795 175.896 94.9795 181.218V366.884C94.9795 373.956 102.651 378.365 108.762 374.802Z" fill="#83869B"/>
<path d="M104.16 370.926C102.216 370.926 100.117 369.381 100.117 366.884V181.218C100.117 177.737 101.985 174.484 104.993 172.731L192.748 121.581C192.899 121.494 193.003 121.483 193.069 121.483C193.202 121.483 193.736 121.6 193.736 122.149V313.113C193.736 316.946 191.678 320.526 188.368 322.456L106.174 370.365C105.535 370.736 104.857 370.926 104.16 370.926Z" fill="url(#paint2_linear_1036_1395)"/>
<path d="M142.924 213.346L110.598 231.969V203.074L142.924 184.451V213.346Z" fill="url(#paint3_linear_1036_1395)"/>
<path d="M142.924 288.521L110.598 307.143V278.25L142.924 259.628V288.521Z" fill="#C2C6CE"/>
<path d="M183.141 265.354L150.814 283.976V255.083L183.141 236.461V265.354Z" fill="#C2C6CE"/>
<path d="M176.901 162.742L149.509 178.521C148.47 179.119 147.62 178.76 147.62 177.72V177.205C147.62 176.166 148.47 174.826 149.509 174.228L176.901 158.449C177.94 157.851 178.79 158.21 178.79 159.25V159.764C178.79 160.804 177.94 162.144 176.901 162.742Z" fill="url(#paint4_linear_1036_1395)"/>
<path d="M134.141 170.701L106.749 186.48C105.71 187.079 104.86 186.719 104.86 185.68V185.165C104.86 184.126 105.71 182.786 106.749 182.187L134.141 166.408C135.181 165.81 136.031 166.17 136.031 167.209V167.724C136.031 168.763 135.181 170.103 134.141 170.701Z" fill="url(#paint5_linear_1036_1395)"/>
<path d="M181.77 174.938L152.184 191.981C151.366 192.453 150.698 192.169 150.698 191.351V190.946C150.698 190.128 151.366 189.076 152.184 188.604L181.77 171.561C182.588 171.09 183.256 171.373 183.256 172.191V172.596C183.256 173.414 182.588 174.468 181.77 174.938Z" fill="#C2C6CE"/>
<path d="M181.77 182.657L152.184 199.7C151.366 200.172 150.698 199.888 150.698 199.07V198.665C150.698 197.847 151.366 196.795 152.184 196.324L181.77 179.28C182.588 178.809 183.256 179.093 183.256 179.91V180.315C183.256 181.131 182.588 182.186 181.77 182.657Z" fill="#C2C6CE"/>
<path d="M181.77 190.374L152.184 207.418C151.366 207.889 150.698 207.605 150.698 206.788V206.382C150.698 205.565 151.366 204.512 152.184 204.041L181.77 186.997C182.588 186.526 183.256 186.81 183.256 187.628V188.033C183.256 188.849 182.588 189.903 181.77 190.374Z" fill="#C2C6CE"/>
<path d="M181.771 202.58L120.13 238.086C119.313 238.558 118.645 238.274 118.645 237.456V237.051C118.645 236.233 119.313 235.181 120.13 234.71L181.771 199.203C182.588 198.731 183.256 199.015 183.256 199.833V200.238C183.256 201.056 182.588 202.108 181.771 202.58Z" fill="#C2C6CE"/>
<path d="M181.77 210.297L112.084 250.441C111.266 250.913 110.598 250.629 110.598 249.811V249.406C110.598 248.588 111.266 247.536 112.084 247.064L181.77 206.92C182.588 206.449 183.256 206.733 183.256 207.55V207.955C183.256 208.773 182.588 209.826 181.77 210.297Z" fill="#C2C6CE"/>
<path d="M181.77 218.014L112.084 258.159C111.266 258.63 110.598 258.346 110.598 257.528V257.123C110.598 256.306 111.266 255.253 112.084 254.782L181.77 214.637C182.588 214.166 183.256 214.45 183.256 215.268V215.673C183.256 216.491 182.588 217.545 181.77 218.014Z" fill="#C2C6CE"/>
<path d="M181.77 225.731L112.084 265.876C111.266 266.347 110.598 266.063 110.598 265.246V264.84C110.598 264.023 111.266 262.97 112.084 262.499L181.77 222.355C182.588 221.883 183.256 222.167 183.256 222.985V223.39C183.256 224.208 182.588 225.262 181.77 225.731Z" fill="#C2C6CE"/>
<path d="M173.926 309.429L132.377 333.365C129.288 335.144 126.761 334.073 126.761 330.984V329.454C126.761 326.365 129.288 322.382 132.377 320.603L173.926 296.668C177.015 294.888 179.542 295.96 179.542 299.049V300.578C179.542 303.667 177.015 307.65 173.926 309.429Z" fill="url(#paint6_linear_1036_1395)"/>
<path d="M272.321 8.91495L343.06 51.6536C344.788 52.6605 345.851 54.5092 345.851 56.5085V134.752C345.851 137.148 340.572 140.183 338.502 138.977L271.145 95.1077C269.642 94.2321 268.717 92.623 268.717 90.8839L264.977 11.8609C264.978 10.0121 270.724 7.98517 272.321 8.91495Z" fill="#878AA0"/>
<path d="M268.395 10.7178L339.135 53.4565C340.863 54.4633 341.925 56.3121 341.925 58.3113V136.555C341.925 138.951 339.328 140.445 337.256 139.239L267.22 96.9093C265.717 96.0337 264.792 94.4247 264.792 92.6856V12.7881C264.793 10.9394 266.798 9.78682 268.395 10.7178Z" fill="url(#paint7_linear_1036_1395)"/>
<g opacity="0.75">
<g opacity="0.75">
<path opacity="0.75" d="M273.414 31.3862V33.5192L312.853 57.537V55.404L273.414 31.3862Z" fill="#CCCCCC"/>
</g>
<g opacity="0.75">
<path opacity="0.75" d="M273.414 37.5405V39.6747L312.853 63.613V61.48L273.414 37.5405Z" fill="#CCCCCC"/>
</g>
<g opacity="0.75">
<path opacity="0.75" d="M273.414 43.6963V45.8293L312.853 69.7687V67.6358L273.414 43.6963Z" fill="#CCCCCC"/>
</g>
<g opacity="0.75">
<path opacity="0.75" d="M273.414 49.8518V51.9848L312.853 75.9242V73.7901L273.414 49.8518Z" fill="#CCCCCC"/>
</g>
</g>
<g opacity="0.75">
<g opacity="0.75">
<path opacity="0.75" d="M273.414 66.7107V68.8449L326.809 101.01V98.8773L273.414 66.7107Z" fill="#CCCCCC"/>
</g>
<g opacity="0.75">
<path opacity="0.75" d="M273.414 72.8663V74.9993L331.606 109.85V107.717L273.414 72.8663Z" fill="#CCCCCC"/>
</g>
<g opacity="0.75">
<path opacity="0.75" d="M273.414 79.0219V81.1548L331.606 116.006V113.873L273.414 79.0219Z" fill="#CCCCCC"/>
</g>
<g opacity="0.75">
<path opacity="0.75" d="M273.414 85.1763V87.3104L331.606 122.162V120.027L273.414 85.1763Z" fill="#CCCCCC"/>
</g>
</g>
<path d="M334.985 67.7141V88.2343L316.16 77.3226V56.7229L334.985 67.7141Z" fill="#CCCCCC"/>
<path d="M128.719 380.736L230.56 439.95C233.009 441.373 236.04 441.349 238.464 439.885L299.026 403.349C301.15 402.068 301.124 398.981 298.981 397.736L196.24 337.999C194.118 336.764 191.491 336.787 189.39 338.054L128.671 374.684C126.381 376.065 126.408 379.392 128.719 380.736Z" fill="#5A5C66"/>
<path d="M128.719 378.978L230.56 438.192C233.009 439.615 236.04 439.591 238.464 438.127L299.026 401.591C301.15 400.31 301.124 397.223 298.981 395.978L196.24 336.241C194.118 335.007 191.491 335.029 189.39 336.297L128.671 372.926C126.381 374.307 126.408 377.635 128.719 378.978Z" fill="#83869B"/>
<path d="M234.458 435.795C233.697 435.795 232.948 435.594 232.291 435.211L130.453 375.997C130.417 375.962 130.415 375.915 130.426 375.897L191.172 339.249C191.682 338.941 192.267 338.779 192.863 338.779C193.441 338.779 194.008 338.933 194.507 339.222L296.975 398.802L236.683 435.175C236.011 435.58 235.241 435.795 234.458 435.795Z" fill="#EFEFEF"/>
<path d="M170.972 379.542L164.519 383.653C162.888 384.692 160.146 384.704 158.394 383.682L151.463 379.631C149.711 378.609 149.613 376.936 151.243 375.898L157.697 371.788C159.328 370.748 162.07 370.736 163.821 371.759L170.753 375.809C172.505 376.832 172.603 378.503 170.972 379.542Z" fill="url(#paint8_linear_1036_1395)"/>
<path d="M201.395 347.695L169.43 368.059C168.915 368.386 168.044 368.39 167.494 368.068C166.941 367.746 166.911 367.215 167.424 366.887L199.389 346.523C199.903 346.196 200.774 346.192 201.325 346.514C201.877 346.836 201.909 347.368 201.395 347.695Z" fill="#AAADAD"/>
<path d="M205.967 350.366L174.002 370.73C173.488 371.057 172.616 371.062 172.066 370.739C171.514 370.417 171.484 369.886 171.996 369.558L203.961 349.194C204.476 348.867 205.347 348.863 205.897 349.185C206.449 349.509 206.481 350.039 205.967 350.366Z" fill="#AAADAD"/>
<path d="M195.199 362.811L178.575 373.401C178.061 373.728 177.19 373.733 176.639 373.41C176.087 373.088 176.057 372.557 176.569 372.229L193.193 361.639C193.708 361.312 194.579 361.308 195.129 361.63C195.681 361.952 195.712 362.484 195.199 362.811Z" fill="#AAADAD"/>
<path d="M155.356 380.825L163.726 381.908L165.582 373.645L160.949 374.191L161.073 379.482L155.106 378.338L155.356 380.825Z" fill="#F9F7FC"/>
<path d="M192.057 391.86L185.604 395.971C183.973 397.01 181.231 397.022 179.479 396L172.548 391.949C170.796 390.927 170.698 389.254 172.328 388.216L178.782 384.105C180.413 383.066 183.155 383.054 184.906 384.077L191.838 388.127C193.589 389.149 193.688 390.821 192.057 391.86Z" fill="url(#paint9_linear_1036_1395)"/>
<path d="M222.48 360.013L190.515 380.377C190 380.704 189.129 380.708 188.579 380.386C188.026 380.064 187.996 379.533 188.509 379.205L220.474 358.841C220.988 358.514 221.859 358.509 222.41 358.831C222.962 359.154 222.994 359.686 222.48 360.013Z" fill="#AAADAD"/>
<path d="M227.052 362.684L195.087 383.048C194.573 383.375 193.701 383.379 193.151 383.057C192.599 382.735 192.568 382.204 193.081 381.876L225.046 361.512C225.56 361.185 226.432 361.18 226.982 361.503C227.534 361.826 227.566 362.357 227.052 362.684Z" fill="#AAADAD"/>
<path d="M216.285 375.129L199.661 385.719C199.147 386.046 198.276 386.05 197.725 385.728C197.173 385.406 197.143 384.875 197.655 384.547L214.279 373.956C214.794 373.63 215.665 373.625 216.215 373.947C216.767 374.269 216.798 374.802 216.285 375.129Z" fill="#AAADAD"/>
<path d="M176.44 393.142L184.81 394.225L186.666 385.963L182.033 386.509L182.157 391.799L176.19 390.656L176.44 393.142Z" fill="#F9F7FC"/>
<path d="M213.14 404.178L206.687 408.289C205.056 409.328 202.314 409.34 200.562 408.317L193.631 404.267C191.879 403.244 191.781 401.572 193.411 400.534L199.865 396.423C201.496 395.384 204.238 395.372 205.989 396.394L212.921 400.445C214.672 401.467 214.771 403.138 213.14 404.178Z" fill="url(#paint10_linear_1036_1395)"/>
<path d="M243.563 372.33L211.598 392.695C211.083 393.021 210.212 393.026 209.662 392.704C209.109 392.382 209.079 391.851 209.592 391.522L241.557 371.158C242.071 370.832 242.942 370.827 243.493 371.149C244.045 371.471 244.077 372.004 243.563 372.33Z" fill="#AAADAD"/>
<path d="M248.135 375.001L216.17 395.366C215.656 395.692 214.784 395.697 214.234 395.375C213.682 395.053 213.651 394.522 214.164 394.194L246.129 373.829C246.643 373.503 247.515 373.498 248.065 373.82C248.617 374.142 248.649 374.675 248.135 375.001Z" fill="#AAADAD"/>
<path d="M237.368 387.446L220.744 398.037C220.23 398.363 219.359 398.368 218.808 398.046C218.256 397.724 218.226 397.193 218.738 396.865L235.362 386.274C235.877 385.947 236.748 385.943 237.298 386.265C237.85 386.587 237.881 387.12 237.368 387.446Z" fill="#AAADAD"/>
<path d="M197.524 405.46L205.894 406.543L207.75 398.28L203.117 398.826L203.241 404.117L197.274 402.974L197.524 405.46Z" fill="#F9F7FC"/>
<path d="M234.224 416.495L227.771 420.606C226.14 421.645 223.398 421.657 221.646 420.635L214.715 416.585C212.963 415.562 212.865 413.889 214.495 412.852L220.949 408.741C222.58 407.702 225.322 407.69 227.073 408.712L234.005 412.762C235.756 413.785 235.855 415.456 234.224 416.495Z" fill="url(#paint11_linear_1036_1395)"/>
<path d="M264.647 384.648L232.681 405.012C232.167 405.339 231.296 405.344 230.746 405.022C230.193 404.699 230.163 404.168 230.676 403.84L262.641 383.476C263.155 383.149 264.026 383.145 264.577 383.467C265.129 383.789 265.161 384.322 264.647 384.648Z" fill="#AAADAD"/>
<path d="M269.219 387.319L237.254 407.683C236.74 408.01 235.868 408.015 235.318 407.693C234.766 407.37 234.735 406.839 235.248 406.511L267.213 386.147C267.727 385.82 268.599 385.816 269.149 386.138C269.701 386.46 269.733 386.993 269.219 387.319Z" fill="#AAADAD"/>
<path d="M258.452 399.764L241.828 410.355C241.314 410.681 240.443 410.686 239.892 410.364C239.34 410.041 239.31 409.511 239.822 409.182L256.446 398.592C256.96 398.265 257.832 398.261 258.382 398.583C258.934 398.905 258.965 399.437 258.452 399.764Z" fill="#AAADAD"/>
<path d="M218.608 417.778L226.978 418.861L228.834 410.598L224.201 411.144L224.325 416.435L218.358 415.291L218.608 417.778Z" fill="#F9F7FC"/>
<path d="M64.7368 229.265L3.41477 265.614C1.30041 266.845 0 269.107 0 271.554V348.097C0 351.029 6.45665 354.741 8.99123 353.265L66.1735 315.534C68.0134 314.462 69.1435 312.496 69.1435 310.366L73.7186 232.869C73.7205 230.607 66.6922 228.128 64.7368 229.265Z" fill="#878AA0"/>
<path d="M69.5396 231.47L8.2175 267.82C6.10315 269.05 4.80273 271.312 4.80273 273.76V350.302C4.80273 353.234 7.98089 355.061 10.5136 353.586L70.9763 317.739C72.8161 316.668 73.9462 314.701 73.9462 312.571V234.003C73.9481 231.743 71.4949 230.333 69.5396 231.47Z" fill="url(#paint12_linear_1036_1395)"/>
<g opacity="0.75">
<g opacity="0.75">
<path opacity="0.75" d="M58.5722 260.453V264.803L20.1787 287.22V282.868L58.5722 260.453Z" fill="#AAADAD"/>
</g>
<g opacity="0.75">
<path opacity="0.75" d="M58.5722 273.006V277.358L20.1787 299.615V295.263L58.5722 273.006Z" fill="#AAADAD"/>
</g>
<g opacity="0.75">
<path opacity="0.75" d="M58.5722 285.56V289.912L20.1787 312.169V307.817L58.5722 285.56Z" fill="#AAADAD"/>
</g>
<g opacity="0.75">
<path opacity="0.75" d="M58.5722 298.116V302.465L20.1787 324.722V320.37L58.5722 298.116Z" fill="#AAADAD"/>
</g>
</g>
<path d="M334.391 64.7959L366.872 84.0492C367.992 84.7007 368.68 85.8991 368.68 87.195V127.738C368.68 129.291 365.259 131.257 363.918 130.476L333.63 110.49C332.656 109.923 332.057 108.88 332.057 107.753L329.634 66.7049C329.633 65.5065 333.355 64.1925 334.391 64.7959Z" fill="url(#paint13_linear_1036_1395)"/>
<path d="M331.848 65.9629L364.329 85.2162C365.449 85.8677 366.136 87.0661 366.136 88.362V128.905C366.136 130.458 364.453 131.426 363.111 130.644L331.087 111.657C330.112 111.09 329.514 110.048 329.514 108.92V67.3058C329.514 66.1074 330.812 65.3607 331.848 65.9629Z" fill="url(#paint14_linear_1036_1395)"/>
<path d="M336.112 89.2027L344.532 107.766L362.593 97.5142L359.081 92.5473L347.825 99.2364L341.021 86.193L336.112 89.2027Z" fill="url(#paint15_linear_1036_1395)"/>
<path d="M208.362 210.749C208.362 210.749 215.476 224.016 219.243 227.393C223.009 230.77 227.109 234.147 223.732 237.766C220.356 241.385 213.119 237.766 207.571 233.666C202.023 229.566 194.718 228.358 194.236 223.535C193.753 218.71 194.395 212.952 194.395 212.952L208.362 210.749Z" fill="#2D2F4F"/>
<path d="M196.62 101.58C196.62 101.58 235.091 113.324 237.722 119.195C240.355 125.067 237.925 149.567 237.722 160.703C237.52 171.839 238.94 185.375 238.94 185.375C238.94 185.375 240.761 186.62 234.079 187.835C227.397 189.051 224.158 185.375 224.158 185.375C224.158 185.375 218.894 167.79 219.704 152.2C220.514 136.61 219.502 131.547 219.502 131.547C219.502 131.547 198.547 131.336 182.316 123.907C166.082 116.479 196.62 101.58 196.62 101.58Z" fill="#2D2F4F"/>
<path d="M199.991 41.8746C199.991 41.8746 210.524 92.411 213.596 93.9707C216.668 95.5305 240.842 113.67 240.842 113.67C240.842 113.67 234.864 112.001 232.004 116.763C229.144 121.524 229.144 123.087 229.144 123.087C229.144 123.087 202.028 104.368 199.99 100.728C197.951 97.0902 191.714 64.3375 191.714 64.3375L199.991 41.8746Z" fill="url(#paint16_linear_1036_1395)"/>
<path d="M158.134 50.9928C153.417 53.1923 149.957 57.4116 148.725 62.4694C144.897 78.1728 136.595 111.938 134.797 116.763C132.44 123.082 148.5 131.496 166.846 126.769C185.191 122.041 186.916 113.67 186.916 113.67C186.916 113.67 202.481 50.7865 201.457 45.0529C200.433 39.3193 191.421 35.4276 187.531 37.2712C184.828 38.5489 168.104 46.3457 158.134 50.9928Z" fill="url(#paint17_linear_1036_1395)"/>
<path d="M155.797 53.2435C151.349 51.6478 144.521 64.3036 150.05 78.0252C155.579 91.7467 169.6 117.602 173.808 118.985C178.016 120.369 212.311 92.7708 212.311 92.7708C212.311 92.7708 209.443 92.7708 206.167 88.0613C202.89 83.3518 203.503 82.4792 203.503 82.4792C203.503 82.4792 179.952 103.42 178.722 102.602C177.495 101.781 171.784 58.977 155.797 53.2435Z" fill="url(#paint18_linear_1036_1395)"/>
<path d="M230.068 120.354C230.068 120.354 230.975 124.043 232.896 125.817C234.818 127.59 234.818 127.59 234.818 127.59C234.818 127.59 236.591 126.112 235.853 124.781C235.113 123.451 237.979 122.19 238.764 124.889C239.55 127.589 240.436 131.138 242.507 125.52C244.575 119.902 239.166 113.409 239.166 113.409C239.166 113.409 230.343 111.639 230.068 120.354Z" fill="#FFBDBD"/>
<path d="M235.105 79.0871L235.979 42.3764C236.021 40.6331 234.166 39.4917 232.629 40.3151L219.71 47.2298C218.173 48.0513 217.198 49.6375 217.156 51.379L216.28 88.2014C216.246 89.6343 217.77 90.5732 219.034 89.8955L233.079 82.377C234.298 81.7258 235.071 80.4689 235.105 79.0871Z" fill="url(#paint19_linear_1036_1395)"/>
<path d="M236.44 79.7079L237.314 42.9971C237.356 41.2538 235.501 40.1124 233.964 40.9358L221.045 47.8505C219.508 48.672 218.533 50.2583 218.491 51.9997L217.615 88.8221C217.581 90.2551 219.105 91.1939 220.369 90.5163L234.414 82.9977C235.633 82.3466 236.407 81.0897 236.44 79.7079Z" fill="url(#paint20_linear_1036_1395)"/>
<path d="M204.128 84.7392C204.128 84.7392 208.241 78.6763 209.044 74.9C209.844 71.1237 218.088 67.3455 218.088 67.3455V71.3508C218.088 71.3508 223.579 68.0307 224.954 68.9469C226.328 69.863 227.929 75.0136 226.099 78.4473C224.268 81.881 218.66 84.0786 216.598 86.0699C214.539 88.0613 211.207 92.5114 211.207 92.5114C211.207 92.5114 205.623 89.5434 204.128 84.7392Z" fill="#FFBDBD"/>
<path d="M238.677 186.442C238.677 186.442 242.459 190.839 249.75 194.485C257.042 198.131 255.421 201.64 251.91 204.071C248.401 206.501 247.587 205.825 238.677 201.911C229.769 197.997 224.232 196.511 223.963 192.596C223.693 188.682 224.158 185.377 224.158 185.377C224.158 185.377 230.979 188.797 238.677 186.442Z" fill="#2D2F4F"/>
<path d="M201.423 14.5225C201.423 14.5225 202.004 24.9145 201.281 28.4561C200.558 31.9977 196.449 42.0925 194.213 43.2547C191.978 44.4169 189.051 43.6333 189.051 43.6333L189.507 44.5589C189.507 44.5589 189.49 49.1056 181.449 49.3896C173.408 49.6735 168.746 46.5294 168.746 46.5294C168.746 46.5294 171.517 39.7945 171.356 33.4382C171.196 27.0819 172.755 11.386 179.617 9.10509C186.479 6.82416 201.423 14.5225 201.423 14.5225Z" fill="#FFBDBD"/>
<path d="M195.227 17.3163C187.112 18.0281 183.139 15.5654 183.139 15.5654C183.139 15.5654 185.126 19.1165 182.76 21.0529C180.394 22.9912 181.136 31.2896 179.955 31.2859C178.774 31.2821 179.287 23.8335 175.742 23.8525C172.196 23.8714 173.237 25.9119 173.561 28.8232C173.887 31.7345 174.674 33.6255 171.867 34.3524C169.06 35.0773 163.171 27.1896 163.309 19.4534C163.447 11.7172 168.471 9.30562 168.471 9.30562C168.471 9.30562 166.533 -0.673685 180.663 0.036149C194.793 0.745983 199.944 4.121 203.921 1.63753C207.9 -0.847838 212.002 15.8456 195.227 17.3163Z" fill="#2D2F4F"/>
<path d="M189.291 43.5348C189.291 43.5348 184.279 43.2206 182.174 40.4835C180.069 37.7463 179.422 37.0024 179.422 37.0024C179.422 37.0024 180.196 40.2469 182.445 43.7922C184.694 47.3376 183.064 49.2646 183.064 49.2646C183.064 49.2646 188.9 49.2191 189.333 45.5091C189.598 43.2225 189.291 43.5348 189.291 43.5348Z" fill="#EAA2A2"/>
<path d="M139.521 117.78C139.521 117.78 132.232 129.837 143.165 139.703C154.098 149.569 192.569 157.263 192.569 157.263C192.569 157.263 192.567 171.557 192.569 187.635C192.571 203.713 194.392 214.16 194.392 214.16C194.392 214.16 191.659 217.079 199.202 217.948C206.743 218.816 210.591 211.729 210.591 211.729C210.591 211.729 212.941 158.106 213.588 149.991C214.235 141.876 176.756 115.959 176.756 115.959L139.521 117.78Z" fill="#434768"/>
<defs>
<linearGradient id="paint0_linear_1036_1395" x1="140.296" y1="314.386" x2="141.854" y2="179.313" gradientUnits="userSpaceOnUse">
<stop offset="0.0163" stop-color="#A4A6B6"/>
<stop offset="1" stop-color="#E4E6EB"/>
</linearGradient>
<linearGradient id="paint1_linear_1036_1395" x1="115.924" y1="207.885" x2="112.752" y2="313.471" gradientUnits="userSpaceOnUse">
<stop stop-color="#FBFCFC"/>
<stop offset="1" stop-color="#E4E6EB"/>
</linearGradient>
<linearGradient id="paint2_linear_1036_1395" x1="100.118" y1="246.204" x2="193.736" y2="246.204" gradientUnits="userSpaceOnUse">
<stop stop-color="#E9E9EB"/>
<stop offset="1" stop-color="white"/>
</linearGradient>
<linearGradient id="paint3_linear_1036_1395" x1="110.597" y1="208.21" x2="142.924" y2="208.21" gradientUnits="userSpaceOnUse">
<stop stop-color="#4C6FBF"/>
<stop offset="1" stop-color="#8CA3D8"/>
</linearGradient>
<linearGradient id="paint4_linear_1036_1395" x1="147.619" y1="168.485" x2="178.79" y2="168.485" gradientUnits="userSpaceOnUse">
<stop stop-color="#4C6FBF"/>
<stop offset="1" stop-color="#8CA3D8"/>
</linearGradient>
<linearGradient id="paint5_linear_1036_1395" x1="104.86" y1="176.444" x2="136.031" y2="176.444" gradientUnits="userSpaceOnUse">
<stop stop-color="#4C6FBF"/>
<stop offset="1" stop-color="#8CA3D8"/>
</linearGradient>
<linearGradient id="paint6_linear_1036_1395" x1="126.76" y1="315.016" x2="179.542" y2="315.016" gradientUnits="userSpaceOnUse">
<stop stop-color="#FFAC06"/>
<stop offset="1" stop-color="#F25227"/>
</linearGradient>
<linearGradient id="paint7_linear_1036_1395" x1="286.855" y1="114.319" x2="315.29" y2="46.135" gradientUnits="userSpaceOnUse">
<stop stop-color="#E9E9EB"/>
<stop offset="1" stop-color="white"/>
</linearGradient>
<linearGradient id="paint8_linear_1036_1395" x1="150.083" y1="377.72" x2="172.134" y2="377.72" gradientUnits="userSpaceOnUse">
<stop stop-color="#4C6FBF"/>
<stop offset="1" stop-color="#8CA3D8"/>
</linearGradient>
<linearGradient id="paint9_linear_1036_1395" x1="171.168" y1="390.038" x2="193.219" y2="390.038" gradientUnits="userSpaceOnUse">
<stop stop-color="#4C6FBF"/>
<stop offset="1" stop-color="#8CA3D8"/>
</linearGradient>
<linearGradient id="paint10_linear_1036_1395" x1="192.251" y1="402.356" x2="214.302" y2="402.356" gradientUnits="userSpaceOnUse">
<stop stop-color="#4C6FBF"/>
<stop offset="1" stop-color="#8CA3D8"/>
</linearGradient>
<linearGradient id="paint11_linear_1036_1395" x1="213.335" y1="414.673" x2="235.386" y2="414.673" gradientUnits="userSpaceOnUse">
<stop stop-color="#4C6FBF"/>
<stop offset="1" stop-color="#8CA3D8"/>
</linearGradient>
<linearGradient id="paint12_linear_1036_1395" x1="22.1113" y1="240.433" x2="47.6057" y2="316.916" gradientUnits="userSpaceOnUse">
<stop stop-color="#E2E2E5"/>
<stop offset="1" stop-color="white"/>
</linearGradient>
<linearGradient id="paint13_linear_1036_1395" x1="329.633" y1="97.6479" x2="368.68" y2="97.6479" gradientUnits="userSpaceOnUse">
<stop stop-color="#4C6FBF"/>
<stop offset="1" stop-color="#8CA3D8"/>
</linearGradient>
<linearGradient id="paint14_linear_1036_1395" x1="356.969" y1="70.7102" x2="343.466" y2="111.221" gradientUnits="userSpaceOnUse">
<stop stop-color="#4C6FBF"/>
<stop offset="1" stop-color="#8CA3D8"/>
</linearGradient>
<linearGradient id="paint15_linear_1036_1395" x1="336.113" y1="96.979" x2="362.593" y2="96.979" gradientUnits="userSpaceOnUse">
<stop stop-color="#E9E9EB"/>
<stop offset="1" stop-color="white"/>
</linearGradient>
<linearGradient id="paint16_linear_1036_1395" x1="191.715" y1="82.48" x2="240.842" y2="82.48" gradientUnits="userSpaceOnUse">
<stop stop-color="#4C6FBF"/>
<stop offset="1" stop-color="#8CA3D8"/>
</linearGradient>
<linearGradient id="paint17_linear_1036_1395" x1="134.565" y1="82.4776" x2="201.505" y2="82.4776" gradientUnits="userSpaceOnUse">
<stop stop-color="#FFAC06"/>
<stop offset="1" stop-color="#F25227"/>
</linearGradient>
<linearGradient id="paint18_linear_1036_1395" x1="147.984" y1="86.0707" x2="212.311" y2="86.0707" gradientUnits="userSpaceOnUse">
<stop stop-color="#4C6FBF"/>
<stop offset="1" stop-color="#8CA3D8"/>
</linearGradient>
<linearGradient id="paint19_linear_1036_1395" x1="226.682" y1="44.4487" x2="225.689" y2="81.8354" gradientUnits="userSpaceOnUse">
<stop stop-color="#A8ADAC"/>
<stop offset="1" stop-color="#E4E6EB"/>
</linearGradient>
<linearGradient id="paint20_linear_1036_1395" x1="230.174" y1="42.4033" x2="224.882" y2="88.2021" gradientUnits="userSpaceOnUse">
<stop stop-color="white"/>
<stop offset="1" stop-color="#E4E6EB"/>
</linearGradient>
</defs>
</svg>
